<svg version="1.1" id="Layer_1" xmlns="http://www.w3.org/2000/svg" xmlns:xlink="http://www.w3.org/1999/xlink" x="0px"
	y="0px" width="100%" viewBox="6 0 304 160" enable-background="new 0 0 304 160" xml:space="preserve">
	<path fill="#363636" opacity="1.000000" stroke="none" d="
M163.028732,103.586235 
	C156.123474,105.000008 150.174255,102.968391 144.312302,100.516869 
	C143.564606,100.204178 142.861038,99.671555 142.277878,99.097672 
	C136.653580,93.562775 137.087036,86.830917 138.784348,80.003258 
	C140.185257,74.367805 144.249725,70.838852 149.790909,70.692856 
	C155.246399,70.549110 160.848785,71.573654 166.185654,72.896683 
	C169.697388,73.767242 171.354965,77.444611 172.986938,80.516144 
	C177.786713,89.549789 173.952042,98.607773 163.028732,103.586235 
M154.105698,97.561195 
	C155.096451,97.640175 156.085907,97.744987 157.078140,97.793968 
	C163.882324,98.129837 168.717361,94.094467 168.827072,88.000992 
	C168.939560,81.753052 164.890381,78.081429 157.798935,78.108498 
	C156.384216,78.113899 155.290253,77.446526 154.063171,76.969734 
	C150.115402,75.435814 145.717758,77.571129 144.522079,81.494171 
	C141.854996,90.244812 144.478149,95.007179 154.105698,97.561195 
z" />
	<path fill="#363636" opacity="1.000000" stroke="none" d="
M111.628204,71.861465 
	C120.241928,74.485397 126.982384,79.910736 134.669907,83.485962 
	C136.423401,84.301437 137.017471,86.013336 136.107819,87.696274 
	C135.142166,89.482819 133.368774,89.448334 131.745834,88.570587 
	C127.357498,86.197227 122.843002,83.998947 118.695465,81.252602 
	C112.918678,77.427406 107.451645,76.873215 101.619263,81.033958 
	C99.349693,82.653023 96.858505,84.152901 93.887184,84.277298 
	C92.482155,84.336121 91.212044,84.081635 90.626152,82.563156 
	C90.144646,81.315178 90.356293,79.939804 91.515373,79.514832 
	C98.139793,77.085945 103.457565,71.302231 111.628204,71.861465 
z" />
	<path fill="#363636" opacity="1.000000" stroke="none" d="
M199.828461,74.658829 
	C207.536148,75.601540 214.391556,78.427094 221.707092,79.145500 
	C223.357239,79.307549 225.056946,80.484116 224.666260,82.510834 
	C224.249527,84.672783 222.526001,85.098236 220.414932,84.869179 
	C214.605347,84.238838 208.965958,82.834312 203.408096,81.152962 
	C196.807404,79.156143 191.310333,80.924507 186.439423,85.454239 
	C185.829941,86.021034 185.222137,86.589684 184.608459,87.151901 
	C183.116776,88.518517 181.440750,89.279129 179.764069,87.661453 
	C177.968750,85.929298 179.054123,84.309242 180.422653,82.924805 
	C185.634277,77.652550 191.498291,73.835884 199.828461,74.658829 
z" />
</svg>