<svg version="1.1" id="Layer_1" xmlns="http://www.w3.org/2000/svg" xmlns:xlink="http://www.w3.org/1999/xlink" x="0px"
	y="0px" width="100%" viewBox="0 0 352 192" enable-background="new 0 0 352 192" xml:space="preserve">
	<path fill="#363636" opacity="1.000000" stroke="none" d="
M212.244537,113.337929 
	C206.705246,115.748482 201.455124,117.794518 196.033997,119.487007 
	C186.630524,122.422775 178.001999,120.874756 169.720047,115.946228 
	C163.295822,112.123230 157.323318,107.677200 151.777756,102.443100 
	C145.542831,107.927467 139.427368,112.630325 131.185669,112.489662 
	C120.684921,112.310425 110.313919,111.597900 104.397758,100.815865 
	C103.159866,98.559845 101.122070,98.298508 98.845161,98.320107 
	C94.015060,98.365936 89.183884,98.325401 84.353363,98.290382 
	C81.968933,98.273094 79.931999,97.589897 79.835747,94.773163 
	C79.733681,91.786308 82.090614,91.272781 84.279160,91.180145 
	C88.769211,90.990097 93.275238,90.941727 97.766235,91.090446 
	C100.891212,91.193939 103.220802,90.348373 104.808876,87.487610 
	C107.055786,83.440041 110.761406,81.472107 115.157204,80.323494 
	C127.850449,77.006783 139.632294,77.461281 149.102646,88.038162 
	C151.161057,90.337067 152.751572,89.542130 154.505219,87.770462 
	C159.342697,82.883270 164.959045,79.048386 170.795410,75.446114 
	C180.451096,69.486526 190.506912,68.810059 200.931671,72.791046 
	C214.456116,77.955757 227.941711,83.225189 241.387268,88.591759 
	C246.126694,90.483414 250.917297,91.219093 256.007690,91.096817 
	C264.331482,90.896881 272.664856,91.008186 280.992584,91.115158 
	C283.479919,91.147102 286.615845,91.268806 286.657593,94.603676 
	C286.703430,98.266449 283.494568,98.625015 280.792633,98.272606 
	C256.253052,95.071869 234.399979,103.977730 212.244537,113.337929 
M160.114792,100.106148 
	C164.191452,104.092133 168.897614,107.199242 173.773697,110.111069 
	C180.151001,113.919365 186.977661,115.134270 193.915848,112.662727 
	C205.751923,108.446465 217.401459,103.706581 229.129364,99.186661 
	C206.537415,98.492516 184.117157,98.488266 161.696915,98.510963 
	C160.945450,98.511726 159.927582,98.345428 160.114792,100.106148 
M204.788712,81.808235 
	C187.204834,74.952957 170.555756,78.442848 163.476105,90.666466 
	C183.766571,90.666466 203.924332,90.666466 224.082092,90.666466 
	C224.131485,90.414223 224.180893,90.161987 224.230286,89.909744 
	C217.982727,87.316887 211.735168,84.724022 204.788712,81.808235 
M135.950485,104.650261 
	C138.673401,103.545265 141.393402,102.436424 143.615036,98.913651 
	C132.822861,98.913651 122.899040,98.913651 112.839684,98.913651 
	C115.287567,104.243713 126.213814,107.041718 135.950485,104.650261 
M125.515831,91.034973 
	C130.412003,91.034973 135.308182,91.034973 140.799240,91.034973 
	C133.866455,83.485085 116.768959,83.743530 112.001076,91.045509 
	C116.285538,91.045509 120.407394,91.045509 125.515831,91.034973 
z" />
</svg>