<svg width="1142" height="627" viewBox="0 0 1142 627" fill="none" xmlns="http://www.w3.org/2000/svg">
<path d="M2.35986 234.386C45.9257 253.717 91.6979 267.808 137.288 281.709C272.564 322.958 394.761 350.686 534.536 375.793C599.608 387.481 664.901 398.523 730.659 405.37C801.321 412.727 915.587 418.883 989.529 398.046C1033.31 385.709 1089.49 346.84 1114.46 307.765C1127.32 287.63 1135.6 263.996 1138.68 240.302C1146.76 178.211 1127.96 142.401 1076.71 104.388C1045.9 81.5341 1010.43 64.7887 974.318 51.8535C905.336 27.1463 773.109 4.68137 699.533 2.69931C665.812 1.79089 631.351 3.2901 598.76 11.995C543.049 26.875 529.514 49.8237 546.507 104.74C567.132 171.396 625.296 235.514 671.224 282.695C754.315 368.053 849.107 433.686 950.938 494.101C990.242 517.419 1035.3 536.774 1067.49 570.508C1082.69 586.448 1092 606.287 1103.19 624.944" stroke="#363636" stroke-width="3" stroke-linecap="round"/>
</svg>
