<svg version="1.1" id="Layer_1" xmlns="http://www.w3.org/2000/svg" xmlns:xlink="http://www.w3.org/1999/xlink" x="0px"
	y="0px" width="100%" viewBox="0 0 1024 176" enable-background="new 0 0 1024 176" xml:space="preserve">
	<path fill="#363636" opacity="1.000000" stroke="none" d="
M371.000610,90.324829 
	C338.514893,90.325615 306.529114,90.325615 274.543335,90.325615 
	C274.539764,90.767227 274.536163,91.208839 274.532562,91.650452 
	C281.092987,92.990013 287.767242,92.546654 294.400208,92.671593 
	C403.051270,94.718170 511.711945,93.527351 620.368713,93.583450 
	C653.992432,93.600807 687.616272,93.144859 721.240112,93.133400 
	C741.223511,93.126595 761.207214,93.556053 781.190369,93.817482 
	C782.679077,93.836960 784.197266,93.938484 785.643250,94.262802 
	C787.253906,94.624062 788.265320,95.738014 788.163574,97.502129 
	C788.059814,99.301292 787.375183,100.858604 785.386780,101.112518 
	C783.580750,101.343140 781.732605,101.303947 779.903809,101.287186 
	C738.760193,100.910110 697.618713,99.853386 656.471802,100.377556 
	C557.508606,101.638260 458.542114,101.469955 359.577209,101.027588 
	C324.763214,100.871964 289.949036,99.868263 255.144180,98.914467 
	C237.679871,98.435867 220.231491,97.281067 202.787491,96.238396 
	C199.360199,96.033546 194.200027,96.715347 194.010681,91.856644 
	C193.797333,86.382339 199.448868,87.210472 202.808517,86.918388 
	C214.577621,85.895203 226.390839,85.250175 238.200455,84.846664 
	C273.678864,83.634460 309.176300,83.742249 344.669495,83.523842 
	C364.994843,83.398773 385.317932,82.915672 405.642517,82.629005 
	C408.247009,82.592262 410.476379,82.329834 411.901611,79.588234 
	C412.955261,77.561440 415.311676,77.018951 417.432648,76.539261 
	C423.113373,75.254448 428.812042,74.048759 434.503845,72.812851 
	C438.896912,71.858971 443.890778,72.316917 446.540039,67.350586 
	C446.924408,66.630035 448.208008,66.288803 449.143921,65.978401 
	C458.176697,62.982582 467.426758,60.901081 476.872620,59.787422 
	C479.831635,59.438560 482.903931,59.211006 484.662720,62.689987 
	C485.464874,64.276733 487.301971,63.775200 488.762024,63.801758 
	C491.206665,63.846226 493.778046,64.039001 494.043915,67.088127 
	C494.303009,70.059860 491.786346,70.823502 489.479248,71.474037 
	C483.518372,73.154823 477.330414,73.369209 471.251678,74.290916 
	C459.801514,76.027069 448.361481,77.830048 436.988220,80.551041 
	C450.361725,80.551041 463.750641,80.959328 477.105011,80.453934 
	C496.416992,79.723076 515.727112,79.077255 535.048584,78.701347 
	C541.874695,78.568550 548.696106,78.210114 555.520752,77.988190 
	C557.349976,77.928719 559.197388,77.852341 561.010925,78.035698 
	C563.191406,78.256157 564.989136,79.373390 564.932922,81.769791 
	C564.876038,84.191879 562.998596,85.124901 560.808655,85.243690 
	C554.823181,85.568359 548.836426,85.931564 542.845215,86.078262 
	C509.537231,86.893837 476.221771,87.456108 442.920868,88.491196 
	C419.116089,89.231110 395.321930,90.266342 371.000610,90.324829 
z" />
</svg>