<svg version="1.1" id="Layer_1" xmlns="http://www.w3.org/2000/svg" xmlns:xlink="http://www.w3.org/1999/xlink" x="0px"
	y="0px" width="100%" viewBox="0 0 512 624" enable-background="new 0 0 512 624" xml:space="preserve">
	<path fill="#363636" opacity="1.000000" stroke="none" d="
M260.449982,625.000000 
	C248.715744,620.105530 247.527100,609.584961 245.770660,599.404785 
	C239.087051,560.666809 232.510651,521.911621 223.928543,483.528473 
	C218.490402,459.206604 213.529739,434.774597 203.740921,411.671661 
	C196.100494,393.639221 184.779892,378.864990 167.072174,369.699036 
	C158.641800,365.335297 149.667618,362.245453 140.621674,359.482574 
	C118.404121,352.696686 96.296890,345.430878 73.800667,339.714294 
	C56.440701,335.302887 52.972683,311.445038 64.145988,300.455353 
	C69.047234,295.634674 75.678932,294.706268 81.785942,292.842163 
	C105.699059,285.542786 129.828491,278.945099 153.531311,270.963318 
	C177.951355,262.740021 194.141861,245.939774 204.073380,222.450714 
	C211.628510,204.582016 216.018692,185.815659 220.513596,167.080444 
	C228.450912,133.996979 234.207916,100.466660 240.477600,67.045334 
	C243.076721,53.190395 245.182983,39.243328 247.744354,25.380825 
	C249.069244,18.210279 252.962036,12.634212 260.170593,10.432920 
	C266.000519,8.652618 271.446686,10.282354 275.800934,14.563562 
	C280.041016,18.732508 281.255951,24.312262 282.223297,29.931143 
	C287.231201,59.019947 292.362915,88.084641 297.955475,117.069870 
	C302.956757,142.990707 308.311005,168.827896 315.352234,194.275589 
	C320.605927,213.262924 327.024048,231.712219 339.816589,247.344376 
	C349.237701,258.856689 361.454529,265.959198 375.045288,270.818604 
	C393.602692,277.453857 412.671478,282.517365 431.565216,288.111115 
	C439.813538,290.553162 448.088776,292.938751 456.220490,295.732117 
	C467.981201,299.772064 473.651947,310.904602 470.804413,323.134308 
	C468.704437,332.153290 463.271332,337.396240 454.379028,339.936371 
	C432.220703,346.266083 410.113953,352.790344 388.095856,359.590576 
	C378.445129,362.571167 368.962830,366.050446 359.955750,370.874390 
	C343.026947,379.941040 332.787567,394.460205 325.346222,411.476349 
	C316.765900,431.096832 312.198761,451.908905 307.426727,472.636841 
	C299.570129,506.763306 293.347015,541.215271 287.354523,575.709106 
	C285.367676,587.145508 283.482880,598.603882 281.220276,609.986450 
	C279.883301,616.712585 275.973053,621.756409 269.261475,624.786377 
	C266.299988,625.000000 263.599976,625.000000 260.449982,625.000000 
z" />
</svg>