<svg version="1.1" id="Layer_1" xmlns="http://www.w3.org/2000/svg" xmlns:xlink="http://www.w3.org/1999/xlink" x="0px"
	y="0px" width="100%" viewBox="0 0 96 144" enable-background="new 0 0 96 144" xml:space="preserve">
	<path fill="#363636" opacity="1.000000" stroke="none" d="
M78.698975,40.927902 
	C79.711731,33.763756 80.691727,27.033243 81.666878,20.302029 
	C81.991699,18.059776 81.848328,15.608822 84.254272,14.290109 
	C86.704185,14.864214 86.427795,16.719685 86.174202,18.287987 
	C83.870636,32.533901 82.679474,46.984917 78.305008,60.852207 
	C76.130791,67.744614 73.190392,74.225952 68.500862,79.794357 
	C62.953625,86.381218 55.844368,89.844353 47.243683,90.377197 
	C43.595135,90.603249 39.931934,90.892921 36.328659,91.480377 
	C30.717535,92.395172 27.279398,95.998703 25.149078,101.110451 
	C20.940668,111.208633 19.219337,121.821632 18.255932,132.634476 
	C18.030180,135.168198 19.566263,139.822601 15.931065,139.604370 
	C12.195110,139.380066 14.391892,135.110306 14.507132,132.520569 
	C14.937605,122.846680 16.492243,113.369080 19.621063,104.186775 
	C24.057880,91.165817 29.369686,86.888535 43.060253,86.813965 
	C57.231503,86.736778 66.094910,79.600563 71.558975,67.243553 
	C75.213509,58.978786 77.226784,50.244450 78.698975,40.927902 
z" />
</svg>