<svg version="1.1" id="Layer_1" xmlns="http://www.w3.org/2000/svg" xmlns:xlink="http://www.w3.org/1999/xlink" x="0px"
	y="0px" width="100%" viewBox="182 170 72 65" enable-background="new 0 0 384 352" xml:space="preserve">
	<path fill="#363636" opacity="1.000000" stroke="none" d="
M209.883820,188.034546 
	C212.252106,181.806656 213.431656,175.558472 216.457596,169.542267 
	C219.617188,172.669968 219.721375,176.655289 220.827301,180.143616 
	C225.125961,193.702332 225.059174,193.676056 239.215591,193.784790 
	C243.096146,193.814590 247.052002,193.209976 252.237396,194.671219 
	C246.498474,198.877335 241.870987,202.844116 236.701828,205.892288 
	C231.734268,208.821609 230.679962,211.978409 232.912643,217.279800 
	C235.201187,222.713821 236.565109,228.537262 238.555145,234.897995 
	C233.465347,233.957458 230.726562,230.668289 227.501572,228.423752 
	C216.429199,220.717545 216.525421,220.640488 205.415894,228.615479 
	C202.252258,230.886536 199.485168,233.814819 195.055496,235.362473 
	C196.397079,227.977936 198.872849,221.496719 201.192749,215.030136 
	C202.537399,211.282028 201.649429,209.285706 198.519348,207.249268 
	C193.924652,204.259903 189.588852,200.872284 185.147781,197.647400 
	C184.118988,196.900345 182.835815,196.340744 182.619217,193.716232 
	C189.373520,193.716232 195.934387,193.461884 202.463577,193.806870 
	C206.720963,194.031830 209.108627,192.618958 209.883820,188.034546 
z" />
</svg>