<svg width="361" height="542" viewBox="0 0 361 542" fill="none" xmlns="http://www.w3.org/2000/svg">
<path d="M74.5864 7.1309C61.1606 6.68337 48.4244 6.74283 35.0836 8.00874C31.8456 8.316 28.4347 7.8821 26.4149 10.8617C24.6292 13.4961 23.3597 16.5509 22.1355 19.4755C20.5677 23.2208 18.1919 26.7065 16.1003 30.1742C14.1063 33.4801 12.2586 36.8655 10.3395 40.2145C9.50138 41.6771 7.90479 43.5359 7.54137 45.2621C6.60528 49.7085 7.0222 55.1368 6.93785 59.6916C6.81981 66.066 5.89416 72.5508 4.85298 78.8395C3.70488 85.774 5.76384 91.1472 7.10245 97.9325C8.66039 105.83 6.53231 113.608 5.23704 121.36C2.47118 137.914 2 155.009 2 171.781C2 180.415 2.25835 189.103 2.60352 197.732C3.02104 208.17 5.428 218.157 6.44407 228.511C7.9965 244.331 7.03826 260.289 8.52894 276.134C9.41677 285.571 10.5509 294.542 10.2846 304.06C9.92057 317.075 9.77942 329.989 9.87313 343.015C10.0012 360.812 9.28698 378.589 8.63867 396.371C8.39515 403.05 7.4865 409.832 7.4865 416.506C7.4865 428.193 9.99241 439.53 10.9979 451.126C11.6811 459.006 12.4635 466.634 14.1252 474.389C16.4134 485.067 17.6188 497.243 23.0133 506.896C29.744 518.941 43.1057 523.969 56.0146 526.154C66.1774 527.874 76.044 529.711 86.355 530.296C99.4537 531.041 112.476 533.729 125.474 535.454C138.89 537.233 152.036 536.264 165.498 536.002C178.505 535.75 191.491 536.355 204.479 536.962C218.814 537.633 233.056 539.246 247.411 539.678C264.426 540.191 281.562 538.531 298.518 537.264C305.788 536.721 312.307 534.708 319.284 532.765C324.984 531.179 330.733 529.641 335.963 526.812C344.88 521.99 350.365 513.515 352.368 503.605C354.419 493.458 353.331 483.164 354.672 472.99C357.058 454.896 355.398 436.492 353.575 418.454C351.974 402.611 351.737 386.268 351.6 370.337C351.466 354.761 350.353 339.37 352.478 323.867C353.41 317.068 354.971 310.396 356.044 303.622C358.044 290.995 358.559 278.138 359.116 265.381C359.778 250.246 358.974 235.273 358.129 220.172C357.389 206.94 357.418 193.591 357.004 180.34C356.634 168.481 355.199 156.709 355.084 144.815C354.902 126.025 354.563 107.172 354.563 88.386C354.563 76.7516 354.807 65.1219 353.822 53.5193C353.151 45.6139 352.121 37.6731 349.57 30.1193C348.42 26.7133 346.904 22.3123 343.48 20.6003C316.803 7.26191 286.09 6.62413 256.848 6.17076C244.588 5.98068 232.322 6.26451 220.061 6.11589C209.4 5.98667 198.778 5.09658 188.13 4.66197C166.414 3.77561 144.691 2.19305 122.95 2.19305C111.764 2.19305 100.35 1.50974 89.208 2.71426C78.5742 3.86386 67.9337 4.9432 57.3039 6.14333" stroke="#363636" stroke-width="3" stroke-linecap="round"/>
</svg>
