<svg width="361" height="542" viewBox="0 0 361 542" fill="none" xmlns="http://www.w3.org/2000/svg">
<path d="M74.5864 7.1309C61.1606 6.68337 48.4244 6.74283 35.0836 8.00874C31.8456 8.316 28.4347 7.8821 26.4149 10.8617C24.6292 13.4961 23.3597 16.5509 22.1355 19.4755C20.5677 23.2208 18.1919 26.7065 16.1003 30.1742C14.1063 33.4801 12.2586 36.8655 10.3395 40.2145C9.50138 41.6771 7.90479 43.5359 7.54137 45.2621C6.60528 49.7085 7.0222 55.1368 6.93785 59.6916C6.81981 66.066 5.89416 72.5508 4.85298 78.8395C3.70488 85.774 5.76384 91.1472 7.10245 97.9325C8.66039 105.83 6.53231 113.608 5.23704 121.36C2.47118 137.914 2 155.009 2 171.781C2 180.415 2.25835 189.103 2.60352 197.732C3.02104 208.17 5.428 218.157 6.44407 228.511C7.9965 244.331 7.03826 260.289 8.52894 276.134C9.41677 285.571 10.5509 294.542 10.2846 304.06C9.92057 317.075 9.77942 329.989 9.87313 343.015C10.0012 360.812 9.28698 378.589 8.63867 396.371C8.39515 403.05 7.4865 409.832 7.4865 416.506C7.4865 428.193 9.99241 439.53 10.9979 451.126C11.6811 459.006 12.4635 466.634 14.1252 474.389C16.4134 485.067 17.6188 497.243 23.0133 506.896C29.744 518.941 43.1057 523.969 56.0146 526.154C66.1774 527.874 76.044 529.711 86.355 530.296C99.4537 531.041 112.476 533.729 125.474 535.454C138.89 537.233 152.036 536.264 165.498 536.002C178.505 535.75 191.491 536.355 204.479 536.962C218.814 537.633 233.056 539.246 247.411 539.678C264.426 540.191 281.562 538.531 298.518 537.264C305.788 536.721 312.307 534.708 319.284 532.765C324.984 531.179 330.733 529.641 335.963 526.812C344.88 521.99 350.365 513.515 352.368 503.605C354.419 493.458 353.331 483.164 354.672 472.99C357.058 454.896 355.398 436.492 353.575 418.454C351.974 402.611 351.737 386.268 351.6 370.337C351.466 354.761 350.353 339.37 352.478 323.867C353.41 317.068 354.971 310.396 356.044 303.622C358.044 290.995 358.559 278.138 359.116 265.381C359.778 250.246 358.974 235.273 358.129 220.172C357.389 206.94 357.418 193.591 357.004 180.34C356.634 168.481 355.199 156.709 355.084 144.815C354.902 126.025 354.563 107.172 354.563 88.386C354.563 76.7516 354.807 65.1219 353.822 53.5193C353.151 45.6139 352.121 37.6731 349.57 30.1193C348.42 26.7133 346.904 22.3123 343.48 20.6003C316.803 7.26191 286.09 6.62413 256.848 6.17076C244.588 5.98068 232.322 6.26451 220.061 6.11589C209.4 5.98667 198.778 5.09658 188.13 4.66197C166.414 3.77561 144.691 2.19305 122.95 2.19305C111.764 2.19305 100.35 1.50974 89.208 2.71426C78.5742 3.86386 67.9337 4.9432 57.3039 6.14333" stroke="#363636" stroke-width="3" stroke-linecap="round"/>
<rect x="29" y="23" width="313" height="487" fill="#363636"/>
<path d="M336.514 27.562C337.959 27.6933 339.198 29.1111 340.246 29.9345C341.043 30.561 341.546 31.564 341.916 32.5488C342.864 35.0784 343.977 36.8959 343.977 39.6893C343.977 42.2678 344.273 44.8267 344.392 47.3941C344.459 48.8365 344.887 50.4474 344.553 51.9087C344.306 52.99 344.013 55.16 344.438 56.1699C344.861 57.1737 344.807 59.3193 344.807 60.4081C344.807 61.5106 344.827 62.8397 345.025 63.9323C345.665 67.4519 346.05 71.2059 346.05 74.8157C346.05 78.566 346.672 82.2075 346.672 85.9756C346.672 87.7015 346.258 89.367 346.258 91.0891C346.258 92.7859 346.258 94.4827 346.258 96.1795C346.258 101.986 345.843 107.765 345.843 113.558C345.843 116.598 346.05 119.523 346.05 122.553C346.05 124 346.258 125.445 346.258 126.86C346.258 128.253 346.209 130.225 346.626 131.582C346.936 132.588 347.009 133.934 347.087 134.991C347.23 136.918 347.709 139.232 347.709 141.061C347.709 144.11 348.331 147.067 348.331 150.09C348.331 153.158 349.16 156.193 349.16 159.303C349.16 162.175 349.16 165.121 349.16 167.999C349.16 170.817 348.745 173.58 348.745 176.406C348.745 179.324 348.745 182.241 348.745 185.159C348.745 190.722 348.538 196.253 348.538 201.801C348.538 208.479 348.538 215.14 348.538 221.806C348.538 222.646 348.556 223.391 348.734 224.19C348.781 224.404 348.607 225.037 348.907 224.662C349.096 224.425 349.199 223.68 349.367 223.36C349.919 222.313 350.196 224.398 350.196 225.03C350.196 226.109 350.311 227.266 350.185 228.336C350 229.91 349.575 231.288 349.575 232.885C349.575 234.111 349.756 235.505 349.413 236.662C349.12 237.653 349.16 239.382 349.16 240.417C349.16 241.531 349.101 242.667 349.16 243.78C349.208 244.697 349.434 245.973 349.885 246.786C350.407 247.725 350.342 245.953 350.45 245.576C350.64 244.91 350.611 242.81 350.611 243.503C350.611 244.618 349.989 245.588 349.989 246.74C349.989 248.331 350.611 243.597 350.611 242.006C350.611 241.182 350.332 242.866 350.3 243.066C350.139 244.066 350.096 245.069 349.943 246.06C349.855 246.631 349.575 247.263 349.575 247.811C349.575 248.391 349.666 249.047 349.413 249.584C349.314 249.795 349.357 248.768 349.356 248.743C349.305 247.727 349.171 246.678 349.045 245.668C348.901 244.52 348.745 243.485 348.745 242.329C348.745 241.427 348.346 237.756 350.358 239.265C351.226 239.916 351.233 240.104 351.233 238.827C351.233 237.872 351.18 237.295 350.45 238.459C349.565 239.868 349.782 241.708 349.782 243.319C349.782 246.037 349.16 254.168 349.16 251.45" stroke="#363636" stroke-width="16" stroke-linecap="round"/>
<path d="M345.428 247.719C345.544 248.817 346.795 249.529 347.617 250.091C348.135 250.446 349.645 250.901 349.828 251.542C350.137 252.626 350.196 253.556 350.196 254.675C350.196 255.696 350.196 256.717 350.196 257.738C350.196 259.005 350.196 255.205 350.196 253.938C350.196 253.432 350.2 253.05 350.404 252.59C350.455 252.475 350.93 252.001 350.726 251.911C349.78 251.49 348.196 252.633 347.824 253.431C347.52 254.083 347.13 256.318 347.617 256.944C348.078 257.537 349.954 257.661 349.989 258.291C350.03 259.025 350.016 259.792 349.989 260.526C349.943 261.773 346.956 260.303 346.695 261.217C346.448 262.083 348.34 263.26 348.93 263.554C349.714 263.947 350.647 263.856 351.279 264.464C351.398 264.579 352.387 265.249 351.832 265.328C351.273 265.408 350.886 265.55 350.358 265.754C349.4 266.124 348.649 266.174 347.812 266.791C346.977 267.406 347.683 267.701 348.434 268.035C349.34 268.437 350.05 268.953 350.864 269.486C351.493 269.897 352.263 269.879 351.279 270.522C350.759 270.862 350.052 271.647 349.459 271.754C347.2 272.165 346.721 273.119 348.814 274.415C349.287 274.707 350.226 275.698 349.943 276.327C349.51 277.289 347.72 277.595 346.868 277.893C346.046 278.18 345.316 278.31 345.014 279.217C344.715 280.115 345.13 280.106 345.797 280.726C347.015 281.86 348.48 282.704 348.941 284.319C349.072 284.776 349.16 285.598 349.16 286.058C349.16 286.805 348.821 287.291 348.745 287.936C348.439 290.535 347.616 292.996 348.112 295.721C348.636 298.602 347.815 302.228 347.306 305.027C347.021 306.594 346.752 307.793 346.004 309.288C345.713 309.871 345.538 310.544 345.267 311.154C344.99 311.778 345.183 312.512 344.91 313.112C344.453 314.117 344.615 315.736 344.346 316.843C343.92 318.596 343.59 320.366 343.367 322.152C343.153 323.862 342.941 325.543 342.941 327.277C342.941 329.292 342.319 331.38 342.319 333.427C342.319 339.065 342.526 344.733 342.526 350.346C342.526 356.217 342.941 362.108 342.941 367.978C342.941 371.279 342.923 374.687 343.194 377.975C343.525 381.98 343.231 386.018 343.551 390.021C343.957 395.088 343.77 410.353 343.77 405.27" stroke="#363636" stroke-width="16" stroke-linecap="round"/>
<path d="M345.843 408.793C345.727 409.958 345.221 410.96 345.221 412.202C345.221 413.115 345.428 414.02 345.428 414.909C345.428 416.236 345.907 417.596 346.039 418.917C346.136 419.884 346.05 420.894 346.05 421.865C346.05 423.416 346.465 424.881 346.465 426.414C346.465 428.204 346.672 429.987 346.672 431.804C346.672 435.291 346.88 438.689 346.88 442.169C346.88 443.413 346.88 444.657 346.88 445.901C346.88 447.241 346.706 449.034 347.248 450.254C347.688 451.244 347.294 453.221 347.294 454.297C347.294 455.223 347.482 456.303 347.283 457.199C347.141 457.834 346.88 458.615 346.88 459.272C346.88 462.001 346.571 464.752 346.465 467.506C346.416 468.766 346.05 470.002 346.05 471.296C346.05 472.608 346.05 473.921 346.05 475.234C346.05 476.392 346.023 477.915 345.682 479.023C345.505 479.597 345.725 480.164 345.474 480.728C345.313 481.091 345.221 482.039 345.221 482.432C345.221 483.741 344.806 485.069 344.806 486.44C344.806 487.68 344.806 488.92 344.806 490.16C344.806 491.427 345.221 492.485 345.221 493.742C345.221 495.161 345.089 496.575 345.014 497.934C344.942 499.225 344.185 500.298 344.185 501.562C344.185 502.81 343.563 504.211 343.563 505.501C343.563 506.604 342.815 508.575 342.065 509.382C340.915 510.621 340.618 511.859 339.785 513.274C338.392 515.643 336.203 517.426 333.612 518.146C330.666 518.964 327.978 520.186 325.159 521.313C322.436 522.403 319.985 523.836 317.12 524.791C314.531 525.654 311.941 526.127 309.15 526.127" stroke="#363636" stroke-width="16" stroke-linecap="round"/>
<path d="M310.601 526.127C308.665 526.02 307.439 526.05 305.626 526.956C304.091 527.724 302.486 527.692 300.87 528.096C297.898 528.839 294.553 527.878 291.53 528.569C288.792 529.194 285.928 529.422 283.237 530.17C281.399 530.68 278.935 530.273 277.064 530.273C275.884 530.273 274.754 530.688 273.598 530.688C266.825 530.688 260.172 531.102 253.386 531.102C249.253 531.102 245.213 530.066 241.074 530.066C240.651 530.066 240.104 529.851 239.681 529.755C238.43 529.471 236.996 529.651 235.719 529.651C233.423 529.651 231.127 529.651 228.832 529.651C225.831 529.651 222.71 529.651 219.802 529.651C218.294 529.651 216.741 529.207 215.242 529.041C213.045 528.797 210.865 528.822 208.654 528.822C207.579 528.822 206.504 528.822 205.429 528.822C204.228 528.822 203.086 529.203 201.882 529.237C199.94 529.291 198.038 529.237 196.066 529.237C191.246 529.237 186.318 529.283 181.566 528.419C180.183 528.167 178.597 528.407 177.178 528.407C175.232 528.407 173.286 528.407 171.339 528.407C168.608 528.407 165.889 528.673 163.162 528.834C160.668 528.98 158.199 529.029 155.7 529.029C149.743 529.029 143.91 527.786 137.964 527.786C133.556 527.786 129.153 527.578 124.731 527.578C119.779 527.578 114.963 526.934 110.093 526.173C108.156 525.871 106.245 525.568 104.311 525.206C102.183 524.807 100.127 523.98 98 523.639C93.5812 522.932 89.1717 522.141 84.7556 521.405C79.4385 520.519 74.1851 519.493 68.7932 519.493C65.7275 519.493 62.6857 519.408 59.6719 518.86C54.8528 517.984 50.2209 516.431 45.4716 515.244C44.059 514.891 42.5839 514.481 41.4176 513.574C40.2737 512.684 38.8771 512.414 37.5825 511.869C36.6845 511.491 36.0895 510.768 35.1985 510.372C35.0685 510.314 34.2887 509.776 34.2887 509.658C34.2887 509.391 34.789 509.849 35.0488 509.911C35.6326 510.05 36.1713 510.162 36.7763 510.211C38.9432 510.386 41.0619 510.412 43.2258 510.211C44.6159 510.081 46.0833 509.79 47.464 509.75C51.8607 509.623 56.235 509.468 60.6393 509.554C65.5759 509.651 70.4382 510.579 75.3924 510.579C78.0033 510.579 80.6009 510.383 83.2124 510.372C91.2023 510.338 98.8639 512.586 106.764 513.574C109.116 513.868 111.48 513.949 113.836 514.207C118.095 514.675 122.336 515.33 126.608 515.658C133.803 516.212 141.063 516.348 148.283 516.384C163.43 516.46 178.623 516.658 193.751 516.015C202.159 515.658 210.608 516.177 219.019 516.177C226.805 516.177 234.566 516.357 242.341 516.695C248.488 516.962 254.596 516.64 260.733 516.591C264.568 516.561 268.38 516.485 272.193 516.061C275.205 515.727 278.26 515.237 281.291 515.152C283.579 515.087 285.842 515.184 288.109 514.806C290.733 514.369 293.346 514.422 295.975 514.103C297.714 513.893 299.432 513.487 301.181 513.32C304.862 512.97 308.416 512.663 312.064 512.019C314.425 511.602 316.765 511.075 319.147 510.787C319.855 510.701 320.45 510.372 321.174 510.372" stroke="#363636" stroke-width="16" stroke-linecap="round"/>
<path d="M330.71 507.885C330.033 508.008 329.629 508.669 329.005 508.921C328.306 509.204 327.633 509.358 326.978 509.75" stroke="#363636" stroke-width="16" stroke-linecap="round"/>
<path d="M235.872 528.315C236.175 529.225 237.12 529.788 237.545 530.639" stroke="#363636" stroke-width="16" stroke-linecap="round"/>
<path d="M30.9316 504.46C30.9316 503.613 30.9585 502.834 30.6878 502.022C30.5308 501.551 30.11 501.221 30.0878 500.71C30.0124 498.975 29.2136 497.146 28.5688 495.553C28.3546 495.023 28.1339 494.549 27.8093 494.081C27.4137 493.509 27.4682 492.762 27.1811 492.14C26.5845 490.847 26.0287 489.542 25.4464 488.248C24.5419 486.238 23.6339 483.88 23.4961 481.675C23.4401 480.78 23.1625 479.779 22.9616 478.9C22.7515 477.98 22.6667 477.038 22.324 476.162C20.5834 471.714 21.116 466.923 19.8768 462.379C19.5548 461.198 19.4549 460.017 19.4549 458.797C19.4549 457.441 19.1441 456.261 18.7985 454.953C18.2235 452.776 18.0817 450.515 17.5233 448.361C17.2683 447.377 17.3416 446.334 17.092 445.351C16.8034 444.215 16.6577 443.067 16.5013 441.91C16.1754 439.499 16.3793 437.2 16.4169 434.793C16.4857 430.391 15.5727 426.188 14.9073 421.863C14.4022 418.58 15.52 415.225 15.7418 412.008C15.8744 410.085 16.5916 408.219 16.8857 406.307C17.1517 404.579 17.4295 402.933 17.4295 401.169C17.4295 396.176 17.7671 391.142 17.7671 386.157C17.7671 380.423 17.9359 374.71 17.9359 368.97C17.9359 365.707 17.9359 362.444 17.9359 359.181C17.9359 356.739 17.5983 354.345 17.5983 351.905C17.5983 349.027 17.5983 346.148 17.5983 343.27C17.5983 342.045 17.7671 340.837 17.7671 339.603C17.7671 338.066 17.473 336.233 17.8609 334.737C18.1808 333.503 18.2104 331.92 19.1173 330.958C20.0453 329.974 21.6131 330.56 22.821 330.883C25.2047 331.522 26.5971 334.493 27.4061 336.64C28.4407 339.386 28.4024 342.279 27.7624 345.098C25.53 354.931 26.5888 365.381 27.2186 375.346C27.567 380.86 27.1099 386.476 26.6185 391.971C26.3498 394.975 25.8866 397.95 25.6996 400.963C25.5304 403.688 25.5692 406.413 25.4464 409.139C25.3268 411.795 25.4181 414.455 25.2589 417.109C25.0583 420.452 24.6645 423.772 24.5556 427.123C24.365 432.991 24.8737 438.723 25.1839 444.563C25.5252 450.993 25.8437 457.424 26.881 463.785C27.3779 466.832 27.8602 469.872 28.4656 472.899C28.5737 473.44 28.7542 474.47 28.9063 473.405" stroke="#363636" stroke-width="16" stroke-linecap="round"/>
<path d="M19.1173 328.426C19.3652 326.196 19.1173 323.949 19.1173 321.675C19.1173 318.075 19.1173 314.474 19.1173 310.874C19.1173 306.162 19.4549 301.483 19.4549 296.771C19.4549 294.284 19.3015 291.676 19.0329 289.205C18.7869 286.941 18.9801 284.605 18.9485 282.332C18.9264 280.741 18.8267 278.857 18.5266 277.297C18.3675 276.469 18.4422 275.604 18.4422 274.765C18.4422 273.434 18.2919 272.111 18.2734 270.78C18.2573 269.621 17.9359 268.486 17.9359 267.329C17.9359 266.373 17.9359 265.417 17.9359 264.46C17.9359 261.182 17.5378 257.851 17.3452 254.577C17.1352 251.009 17.4302 247.37 17.8984 243.832C18.4906 239.357 18.7121 234.815 19.0798 230.311C19.2894 227.743 19.4549 225.104 19.4549 222.529C19.4549 220.034 19.7924 217.559 19.7924 215.065C19.7924 212.582 19.8167 210.036 20.0456 207.564C20.3275 204.519 20.1871 201.469 20.505 198.431C21.1117 192.634 21.5651 186.659 20.7301 180.86C20.3791 178.422 19.7924 175.942 19.7924 173.471C19.7924 170.298 19.9806 166.384 21.6865 163.626C22.8844 161.689 23.9988 162.423 25.5965 163.701C26.6729 164.562 26.998 165.446 27.0404 166.804C27.1324 169.747 26.4582 172.525 26.0747 175.421C25.7169 178.123 25.2827 180.807 24.8932 183.504C24.3868 187.01 24.642 190.726 24.6963 194.259C24.7563 198.159 25.2824 202.07 25.7934 205.932C26.4538 210.925 26.958 215.815 27.0873 220.86C27.2217 226.1 27.5561 231.33 27.5561 236.575C27.5561 241.907 27.1575 247.231 27.0498 252.561C26.9539 257.308 26.5714 262.017 26.2059 266.748C25.797 272.041 25.6896 277.269 25.6996 282.576C25.711 288.669 25.9513 294.708 26.2997 300.785C26.581 305.691 26.4976 310.603 26.881 315.506C27.0456 317.61 27.141 319.759 27.5561 321.835C27.5987 322.048 27.722 322.86 27.8937 322.688" stroke="#363636" stroke-width="16" stroke-linecap="round"/>
<path d="M17.2608 285.557C17.79 284.962 17.7402 283.31 17.7671 282.557C17.8042 281.517 17.5395 280.666 17.4389 279.659C17.1389 276.66 16.8858 273.669 16.5481 270.667C16.2564 268.075 16.9476 265.565 17.4295 263.035C17.9025 260.552 17.6568 258.243 17.4202 255.759C17.384 255.379 17.23 254.589 17.0076 254.277C16.968 254.222 16.5391 255.613 16.5013 255.778C16.1937 257.111 15.9417 258.664 15.9105 260.035C15.9013 260.443 15.7418 260.804 15.7418 261.216C15.7418 261.996 15.8654 260.236 15.873 260.147C16.0686 257.866 16.2474 255.496 16.595 253.237C17.3086 248.598 16.5334 244.072 16.1168 239.444C15.9971 238.114 16.0434 236.765 15.948 235.431C15.8508 234.069 15.5485 232.757 15.4136 231.408C15.3024 230.296 14.8458 229.433 14.5978 228.38C14.1636 226.534 13.2775 224.692 13.2101 222.772C13.1491 221.035 12.7903 219.332 12.4506 217.634C12.1819 216.29 12.3386 214.882 12.1881 213.527C12.0932 212.673 11.9067 211.753 11.8599 210.864C11.7706 209.167 11.2453 207.515 10.8473 205.876C10.4019 204.042 10.2962 202.098 10.0878 200.222C9.87135 198.274 9.56037 196.345 9.36577 194.399C9.16285 192.37 9.36512 190.289 9.48767 188.267C9.65061 185.579 9.95038 182.829 10.3784 180.166C10.9198 176.797 10.2949 173.296 10.7629 169.927C11.2297 166.566 11.6961 163.247 12.0662 159.875C12.2708 158.011 12.5992 156.16 12.8726 154.315C13.0945 152.817 13.7165 151.194 13.7165 149.692" stroke="#363636" stroke-width="16" stroke-linecap="round"/>
<path d="M9.6658 170.115C9.53577 172.195 9.32825 165.955 9.32825 163.87C9.32825 161.807 9.44753 159.92 9.83458 157.888C10.1791 156.079 10.6815 154.257 11.0066 152.468C11.2446 151.159 10.8152 149.758 11.1004 148.446C11.4131 147.007 11.2556 145.167 11.1754 143.682C11.0829 141.971 11.016 140.286 11.016 138.563C11.016 137.825 11.2128 136.926 11.3161 136.191C11.4991 134.887 11.4688 133.522 11.7755 132.234C12.3257 129.923 12.0171 127.466 12.3756 125.136C12.5962 123.702 13.1767 122.324 13.5101 120.907C14.0766 118.5 14.1517 116.041 14.5978 113.612C14.9378 111.761 15.2354 109.722 15.2354 107.836C15.2354 106.394 14.8681 105.006 14.5978 103.654C13.8474 99.9021 12.5096 96.2173 12.3662 92.3463C12.2718 89.7966 12.1974 87.2492 12.1974 84.6764C12.1974 82.5993 11.8925 80.2237 12.2349 78.1691C12.7367 75.1585 12.6237 72.0392 13.1257 69.0271C13.5921 66.2285 14.054 63.4812 14.054 60.6351C14.054 55.8265 14.526 51.2765 16.595 46.8799C17.5192 44.9159 17.6559 42.5276 18.8547 40.7008C20.1849 38.6738 22.0227 36.6305 22.8397 34.3154C23.7791 31.6537 24.4769 28.6643 26.3746 26.4955C27.0155 25.763 27.6952 25.2625 28.0999 24.3483C28.663 23.0761 29.2757 21.7167 29.9189 20.4945C30.6942 19.0215 31.5291 17.4417 32.4506 16.0595C33.1668 14.9852 32.3256 16.6509 32.2818 17.1659C32.1525 18.6855 31.745 20.0708 31.4004 21.5541C30.5754 25.106 30.2859 28.6572 29.9565 32.2807C29.7663 34.372 29.8742 36.5072 29.4689 38.5723C28.8295 41.8301 28.057 44.8827 27.828 48.2301C27.4599 53.6098 27.2702 58.9746 26.5809 64.3295C25.7329 70.9181 26.2885 77.7034 26.1965 84.3295C26.1414 88.2955 26.1019 92.1565 26.8435 96.0782C27.3729 98.878 27.8945 101.652 28.2687 104.479C28.881 109.106 29.3151 113.799 29.4032 118.469C29.5213 124.727 29.6962 130.985 29.4126 137.241C29.2475 140.884 29.1358 144.536 29.0844 148.183C29.047 150.841 29.2232 153.53 28.9907 156.181C28.7838 158.54 28.3315 160.835 28.0999 163.176C27.9838 164.35 27.8744 162.679 27.7999 162.313C27.229 159.511 26.1914 156.812 25.4464 154.053C24.0568 148.906 24.519 143.778 24.3118 138.516C24.0939 132.98 22.7233 127.551 22.5022 122.023C22.4325 120.281 22.4928 118.525 22.4928 116.781" stroke="#363636" stroke-width="16" stroke-linecap="round"/>
<path d="M32.9569 19.0599C34.5767 18.9353 35.7956 18.297 37.0075 17.3346C37.6325 16.8383 38.1355 15.6075 38.9391 15.3843C40.3509 14.9921 41.9681 15.178 43.421 15.178C44.9088 15.178 46.3965 15.178 47.8842 15.178C50.124 15.178 52.3345 14.5559 54.5603 14.5029C57.1169 14.442 59.7011 14.3341 62.249 14.3341C65.5558 14.3341 68.8523 13.7194 72.1318 13.359C74.4453 13.1048 76.7543 13.1199 79.0703 12.8527C81.0408 12.6253 82.8862 12.3088 84.8837 12.3088C89.4344 12.3088 93.9852 12.3088 98.5359 12.3088C101.075 12.3088 103.596 12.4509 106.131 12.4776C107.935 12.4966 109.671 12.6759 111.475 12.5151C112.865 12.3913 114.262 12.14 115.657 12.14C116.842 12.14 118.033 12.0385 119.202 11.84C119.991 11.706 119.668 11.2254 119.164 10.8836C117.565 9.79821 115.203 10.1147 113.332 10.1147C108.991 10.1147 104.843 11.2743 100.486 11.2962C97.6763 11.3103 94.8743 11.1274 92.0661 11.1274C90.7217 11.1274 89.3408 11.2227 88.0717 11.7087C86.0117 12.4977 83.9356 13.1638 81.8458 13.8653C78.3961 15.0232 75.1039 16.593 71.6254 17.6722C66.3535 19.3078 60.9609 20.3981 55.5729 21.554C54.0346 21.884 50.117 22.3106 49.5345 24.2169C49.09 25.6717 55.3961 25.6657 55.9292 25.6984C65.199 26.2672 74.748 26.3253 84.0023 25.6046C92.1682 24.9687 100.235 23.6684 108.456 23.8231C114.908 23.9446 121.33 24.5978 127.79 24.6295C134.311 24.6615 140.897 24.5894 147.406 25.0045C152.397 25.3228 157.376 25.6355 162.371 25.8859C167.19 26.1275 171.915 26.9378 176.754 26.7861C180.062 26.6824 183.389 26.3844 186.675 25.9797C187.902 25.8285 187.997 25.4398 187.856 24.2169C187.698 22.8383 187.073 21.3175 186.543 20.035C186.058 18.8595 184.973 18.8496 183.843 18.7223C179.443 18.227 175.032 17.6908 170.603 17.5784C166.357 17.4706 162.126 17.6441 157.889 17.2971C151.094 16.7407 144.277 16.6349 137.486 16.0594C133.493 15.7211 129.872 15.1283 126.403 13.0027C126.131 12.8365 122.994 11.2919 123.496 10.7898C124.116 10.1694 125.316 10.2943 126.103 10.2835C129.665 10.2347 133.238 10.1147 136.811 10.1147C141.16 10.1147 145.445 10.5311 149.788 10.7523C152.76 10.9038 155.769 10.9044 158.733 11.1649C162.892 11.5306 167.064 11.741 171.222 12.1025C173.576 12.3072 175.913 12.3088 178.273 12.3088" stroke="#363636" stroke-width="16" stroke-linecap="round"/>
<path d="M177.429 11.1274C178.384 11.082 179.33 10.8213 180.28 10.7055C182.971 10.3773 185.836 10.7085 188.512 11.043C190.802 11.3292 193.098 11.4109 195.385 11.7181C197.885 12.0539 200.366 12.052 202.877 12.1776C205.264 12.2969 207.651 12.4776 210.041 12.4776C213.304 12.4776 216.567 12.4776 219.83 12.4776C228.661 12.4776 237.573 11.89 246.384 12.562C254.348 13.1695 262.313 13.1527 270.294 13.1527C275.977 13.1527 281.633 13.4469 287.303 13.8279C291.599 14.1166 295.745 14.6839 299.895 15.675C304.917 16.8743 310.13 17.3371 315.104 18.6567C319.717 19.8806 323.909 22.2521 328.653 23.1105C329.984 23.3513 331.016 23.7655 332.235 24.3295C332.487 24.4463 335.048 25.9145 335.029 25.9422C334.933 26.0789 334.443 26.1032 334.335 26.111C332.51 26.2427 330.636 25.9337 328.831 25.7172C321.385 24.8237 313.832 24.8377 306.346 24.4608C291.727 23.7245 277.01 24.3294 262.38 24.5451C253.922 24.6699 245.5 24.2051 237.045 24.0857C228.024 23.9583 218.981 24.2253 209.966 24.0107C201.055 23.7985 192.24 21.6417 183.337 21.0852" stroke="#363636" stroke-width="16" stroke-linecap="round"/>
<path d="M349.191 250.652C349.86 252.124 350.151 253.618 350.274 255.232C350.382 256.649 350.336 258.082 350.41 259.502C350.479 260.854 350.659 262.212 350.671 263.565C350.685 265.246 350.586 266.862 350.758 268.542C350.877 269.706 351.031 270.874 351.019 272.048C351.008 273.145 350.845 274.235 350.845 275.337C350.845 276.258 351.094 276.986 351.348 277.861C351.522 278.465 351.664 279.098 351.454 279.728" stroke="#363636" stroke-width="16" stroke-linecap="round"/>
</svg>
