<svg width="361" height="542" viewBox="0 0 361 542" fill="none" xmlns="http://www.w3.org/2000/svg">
    <path
        d="M30.5343 292.34C27.6406 290.218 24.5758 288.139 22.9282 284.844C22.3921 283.772 21.8548 282.671 21.2624 281.635C20.2505 279.864 19.6855 277.78 19.021 275.853C18.4781 274.279 18.2588 272.792 17.8574 271.187C17.2989 268.953 17.4802 266.781 17.1347 264.536C16.9075 263.059 17.052 261.499 16.8775 260.016C16.6477 258.063 16.2039 256.118 16.2039 254.15C16.2039 250.767 16.8653 247.486 16.8653 244.082C16.8653 240.715 17.0974 237.36 16.0936 234.148C15.7582 233.075 16.0154 231.933 15.7139 230.878C15.3591 229.636 15.8433 228.256 15.4935 227.032C15.2476 226.172 15.4191 225.347 15.3098 224.472C15.2148 223.712 14.9618 222.933 14.8933 222.145C14.7454 220.444 14.269 218.79 14.2197 217.062C14.1348 214.09 13.2265 210.951 12.3457 208.133C11.4938 205.407 11.585 202.22 11.1821 199.4C10.9486 197.766 11.1331 196.004 11.1331 194.354C11.1331 191.446 11.0119 188.561 10.9126 185.682C10.8647 184.292 10.4717 183.06 10.4717 181.652C10.4717 179.582 10.4717 177.512 10.4717 175.442C10.4717 174.015 9.8103 172.605 9.8103 171.18C9.8103 169.857 9.8103 168.534 9.8103 167.212C9.8103 164.056 9.8103 160.9 9.8103 157.744C9.8103 156.575 10.0308 155.384 10.0308 154.278C10.0308 152.953 10.623 151.673 10.6922 150.358C10.8213 147.906 11.3536 145.568 11.3536 143.083C11.3536 139.808 11.574 136.389 11.574 133.051C11.574 131.567 11.4711 130.078 11.8435 128.63C12.1888 127.287 12.6225 125.923 12.8969 124.551C13.4252 121.91 14.0447 119.362 14.4524 116.712C14.6858 115.195 14.9875 113.507 15.4935 112.046C15.7234 111.381 16.0407 109.305 16.5346 108.91C16.7634 108.727 16.6299 108.236 16.8163 107.979C17.2957 107.32 16.6238 105.873 16.4733 105.211C16.1731 103.89 15.9834 102.516 15.5915 101.243C15.0671 99.5384 15.1907 97.2457 15.1015 95.4615C14.9926 93.2832 14.3996 90.8947 13.6685 88.8475C13.0356 87.0754 12.8969 84.9041 12.8969 83.0174C12.8969 80.608 13.3368 78.103 14.0482 75.7909C14.7839 73.3997 14.6606 70.8381 14.6606 68.344C14.6606 67.2895 15.0341 64.3541 16.6938 65.1839C18.6062 66.1401 20.3726 67.1713 22.0095 68.5644C24.0038 70.2617 24.5817 71.7099 24.5817 74.2844C24.5817 76.7881 24.2826 79.2713 23.9203 81.7435C23.476 84.7753 23.7299 87.8894 23.9693 90.9297C24.263 94.6601 24.4525 98.3655 24.5817 102.112C24.7768 107.772 24.4428 113.301 24.3734 118.954C24.2663 127.688 23.8928 136.257 22.8179 144.92C22.2744 149.3 22.5974 153.838 22.5974 158.246C22.5974 164.504 22.2957 170.586 21.7156 176.814C21.322 181.04 20.9262 185.249 20.8215 189.491C20.7541 192.219 20.5568 194.928 20.6377 197.661C20.7302 200.783 21.2589 203.846 21.5931 206.945C22.2664 213.188 22.5974 219.457 22.5974 225.734C22.5974 236.591 23.466 247.434 23.6875 258.289C23.8685 267.154 22.1565 275.845 22.1565 284.697C22.1565 289.64 22.4945 294.606 22.377 299.541C22.2804 303.6 21.0542 307.628 21.0542 311.704C21.0542 313.782 20.6568 315.817 20.6132 317.865C20.5715 319.826 20.5588 321.779 20.2213 323.719C20.0307 324.815 20.0036 325.943 19.9028 327.051C19.808 328.094 19.7314 329.114 19.7314 330.162C19.7314 330.904 19.7314 330.051 19.7314 329.819"
        stroke="#EFE8D6" stroke-width="16" stroke-linecap="round" />
    <path
        d="M19.7314 256.183C18.4482 260.246 18.1881 265.045 18.1881 269.313C18.1881 272.143 17.7471 274.938 17.7471 277.788C17.7471 279.814 17.9676 281.866 17.9676 283.851C17.9676 285.021 18.0722 286.115 18.2003 287.269C18.3194 288.34 18.2932 289.913 18.7392 290.894C19.5013 292.571 19.5109 295.477 19.5109 297.337C19.5109 299.345 19.5109 301.354 19.5109 303.363C19.5109 305.681 19.7314 308.043 19.7314 310.418C19.7314 312.597 19.5109 314.693 19.5109 316.86C19.5109 319.031 19.7654 321.453 19.3027 323.536C18.9124 325.292 18.8495 327.134 18.8495 328.949C18.8495 331.347 18.4085 333.66 18.4085 336.004C18.4085 338.389 18.4085 340.773 18.4085 343.157C18.4085 347.966 18.629 352.698 18.629 357.488C18.629 363.132 18.1881 368.614 18.1881 374.243C18.1881 376.48 18.0243 378.684 17.9676 380.894C17.9327 382.256 17.7978 383.619 17.7471 384.985C17.7168 385.803 17.3062 386.654 17.3062 387.41C17.3062 391.955 17.0857 396.607 17.0857 401.079C17.0857 406.152 15.9834 411.131 15.9834 416.132C15.9834 417.786 15.9834 419.439 15.9834 421.093C15.9834 422.726 16.2039 424.373 16.2039 426.041C16.2039 426.758 16.171 428.448 16.5346 429.03C16.9057 429.623 16.8766 430.975 17.0367 431.675C17.2615 432.659 17.5267 433.746 17.5267 434.762C17.5267 435.522 17.2589 436.915 17.5757 437.628C17.739 437.995 17.6421 438.384 17.7961 438.73C17.9535 439.084 18.3648 439.24 18.4085 439.612C18.4873 440.282 19.07 440.841 19.07 441.596C19.07 442.335 18.6654 442.926 18.629 443.58C18.5344 445.283 18.4085 446.952 18.4085 448.651C18.4085 452.353 19.2494 455.738 20.1233 459.234C20.9966 462.727 22.1565 466.242 22.1565 469.816"
        stroke="#EFE8D6" stroke-width="16" stroke-linecap="round" />
    <path
        d="M149.808 19.3999C146.689 18.4826 143.64 17.5502 140.377 17.4157C136.575 17.2589 132.779 17.0493 128.973 16.9747C119.303 16.7851 109.641 16.7543 99.9696 16.7543C95.1517 16.7543 90.1537 16.1356 85.3697 16.7665C81.7903 17.2385 78.2168 17.5898 74.6158 17.8566C64.7609 18.5866 54.8841 17.6637 45.0608 18.567C43.0996 18.7473 41.1688 18.7385 39.1939 18.7385C38.0369 18.7385 36.4117 18.4293 35.2867 18.7507C34.8584 18.8731 34.657 19.8384 34.1477 20.0735C33.406 20.4158 32.5864 20.7575 31.9552 21.2738C31.3543 21.7655 30.6491 21.8982 30.0935 22.4864C29.7374 22.8634 29.6036 23.7412 29.2116 23.9807C28.0483 24.6916 27.594 26.471 27.0069 27.6797C25.7185 30.3323 23.1956 32.6292 22.3771 35.494C21.6605 38.0022 19.4563 39.8168 18.3107 42.1081C16.8306 45.0682 14.2641 47.5548 13.7789 50.9513C13.4393 53.3284 13.8029 55.4736 16.547 55.9486C19.08 56.387 21.9369 55.1149 23.6999 53.3519"
        stroke="#EFE8D6" stroke-width="16" stroke-linecap="round" />
    <path d="M15.9834 58.2026C15.3795 59.4106 15.4505 60.8118 14.8811 61.9506" stroke="#EFE8D6" stroke-width="16"
        stroke-linecap="round" />
    <path
        d="M32.7391 23.589C32.8146 22.2306 33.3478 20.5089 32.7881 19.1796C32.2398 17.8774 32.4077 17.1954 33.8659 17.1954C36.0412 17.1954 38.1567 16.5287 40.1493 15.7624C42.1172 15.0055 44.3813 14.7702 46.5061 14.7702C48.0649 14.7702 49.5891 14.1643 51.087 14.1088C55.079 13.961 59.0774 14.3293 63.0535 14.3293C66.6489 14.3293 70.2791 14.484 73.8686 14.3171C76.6771 14.1864 79.0069 13.4252 81.683 12.737C82.5316 12.5188 83.3857 12.1015 84.2184 11.9164C84.4623 11.8622 81.9923 11.712 81.3401 11.8552C79.6485 12.2265 77.635 11.9479 76.0488 12.688C75.6634 12.8679 74.8443 12.9333 75.6079 13.0555C76.6497 13.2222 77.6622 13.2546 78.7189 13.2147C79.967 13.1676 81.1645 12.8665 82.3934 12.6758C84.7034 12.3173 87.0194 12.3451 89.3504 12.3451C91.8564 12.3451 94.3219 12.3325 96.7851 11.9042C98.9216 11.5326 100.881 11.0636 103.068 11.0223C103.647 11.0114 106.281 10.7148 104.342 10.5936C102.406 10.4726 100.608 10.6765 98.7081 10.9733C97.2706 11.1979 95.8905 11.4632 94.4334 11.4632C92.47 11.4632 89.6543 11.9769 87.7826 11.353C86.5412 10.9392 89.5849 11.2459 90.0608 11.1938C91.7652 11.007 93.4634 10.8018 95.1806 10.8018C97.4188 10.8018 99.7483 10.6282 101.978 10.8141C104.854 11.0537 107.835 11.2301 110.699 10.7896C112.856 10.4577 114.784 10.1404 116.958 10.1404C118.216 10.1404 119.901 10.0254 121.147 9.74847C123.06 9.32328 125.146 9.47901 127.099 9.47901C130.496 9.47901 133.857 10.1616 137.241 10.3731C139.322 10.5032 141.354 10.5814 143.463 10.5814C147.521 10.5814 151.58 10.5814 155.638 10.5814C159.267 10.5814 162.999 11.4632 166.673 11.4632C170.385 11.4632 174.037 12.0476 177.734 12.1246C179.296 12.1572 180.84 12.3674 182.376 12.5656C184.925 12.8945 187.45 12.965 190.006 13.178C193.38 13.4591 196.744 13.2609 200.123 13.4597C206.255 13.8204 212.423 13.6679 218.569 13.6679C220.207 13.6679 221.919 13.7795 223.554 13.9006C225.316 14.0312 227.201 13.9542 228.943 14.2313C231.863 14.6957 234.761 14.7107 237.701 14.9907C239.237 15.137 240.906 15.0572 242.404 15.4317"
        stroke="#EFE8D6" stroke-width="16" stroke-linecap="round" />
    <path
        d="M22.1078 468.414C21.0739 471.09 21.3368 474.605 22.409 477.226C22.9089 478.448 23.8427 479.373 24.1337 480.683C24.336 481.593 24.1412 482.731 24.1412 483.665C24.1412 484.661 25.2103 485.66 25.527 486.61C25.7295 487.217 25.6484 487.885 25.8357 488.485C26.0228 489.083 26.1747 490.013 26.1747 490.646C26.1747 492.137 26.6368 493.577 26.7169 495.06C26.7971 496.543 28.0123 497.871 28.3135 499.323C28.5232 500.333 29.0795 501.165 29.4884 502.094C29.8545 502.926 30.2677 503.843 30.8591 504.542C31.4128 505.196 32.162 505.979 32.9378 506.372C33.7965 506.807 35.206 506.935 35.6942 507.863C36.3543 509.117 36.9607 510.092 38.1042 510.981C39.0916 511.749 40.3828 512.318 41.5536 512.743C42.1197 512.949 42.6528 513.379 43.2105 513.632C44.003 513.992 44.7576 514.302 45.6054 514.506C45.9869 514.597 46.3826 514.716 46.705 514.942C47.6675 515.619 49.1254 516.096 50.2748 516.373C52.6314 516.942 55.3323 517.759 57.7685 517.759C59.1158 517.759 60.3048 518.177 61.617 518.407C63.7047 518.773 65.7686 519.171 67.8679 519.491C69.9097 519.803 71.8951 520.414 73.9532 520.711C76.0621 521.016 78.1358 521.284 80.2645 521.284"
        stroke="#EFE8D6" stroke-width="16" stroke-linecap="round" />
    <path
        d="M58.4388 510.032C65.0867 510.777 71.6776 511.583 78.3667 511.794C84.0238 511.973 89.6844 512.041 95.3422 512.201C106.118 512.506 116.895 513.054 127.674 512.886C134.575 512.779 141.482 513.15 148.385 513.15C156.892 513.15 165.369 512.914 173.864 512.442C179.658 512.12 185.445 512.067 191.231 511.553C196.609 511.076 201.97 510.418 207.348 509.957C214.998 509.301 222.7 509.919 230.333 508.948C238.103 507.959 245.874 508.017 253.688 507.795C261.444 507.575 269.124 508.256 276.862 508.676C282.33 508.974 287.818 508.697 293.25 509.354C295.476 509.624 297.692 509.986 299.907 510.333C303.378 510.877 306.873 511.262 310.338 511.809C311.462 511.987 312.604 512.151 313.72 512.367C314.274 512.474 313.325 512.876 313.253 512.909C311.557 513.695 309.655 514.122 307.83 514.476C304.172 515.185 300.426 515.659 296.707 515.884C288.252 516.395 279.738 516.077 271.273 516.132C267.048 516.16 262.698 516.364 258.515 517.006C254.624 517.603 250.798 518.227 246.872 518.573C243.642 518.857 240.426 518.833 237.187 518.844C233.159 518.857 229.131 519.27 225.107 519.446C220.857 519.632 216.655 519.865 212.424 520.335C207.489 520.883 202.525 521.023 197.595 521.623C192.918 522.192 188.277 522.304 183.571 522.436C179.131 522.561 174.753 522.097 170.324 522.097C163.056 522.097 155.786 522.669 148.513 522.474C141.761 522.293 135.008 522.264 128.254 522.029C122.865 521.842 117.459 521.583 112.16 520.523C110.54 520.199 109.009 520.005 107.362 519.853C105.624 519.693 103.882 519.266 102.135 519.25C99.2386 519.225 96.3189 519.117 93.4443 519.522C92.8549 519.604 87.8561 520.406 87.8561 521.352C87.8561 522.825 90.3799 523.046 91.3808 523.046C92.7263 523.046 94.0719 523.046 95.4175 523.046C95.8487 523.046 95.8918 523.134 96.2159 523.317C97.4252 524.003 99.0679 523.79 100.381 524.078C102.057 524.446 103.666 525.006 105.389 525.215C106.092 525.3 106.802 525.553 107.505 525.682C108.853 525.93 110.223 525.925 111.58 526.059C113.419 526.241 115.271 526.68 117.093 526.978C119.39 527.353 121.669 527.433 123.984 527.527C125.018 527.569 126.068 527.727 127.094 527.859C128.226 528.004 129.375 527.944 130.506 528.137C132.555 528.487 134.57 528.62 136.629 528.875C137.979 529.043 139.321 529.011 140.681 529.011C141.844 529.011 143.238 529.216 144.386 528.981C146.39 528.57 148.358 528.198 150.419 528.198C152.355 528.198 154.253 527.926 156.188 527.926C158.674 527.926 161.131 527.384 163.606 527.384C164.633 527.384 165.625 527.528 166.649 527.625C168.644 527.815 170.672 527.501 172.666 527.723C174.844 527.965 177.087 527.926 179.279 527.926C182.094 527.926 185.055 527.641 187.842 528.032C189.338 528.242 190.894 528.198 192.406 528.198C195.093 528.198 197.717 528.604 200.389 528.604C202.465 528.604 204.541 528.604 206.617 528.604C208.583 528.604 210.601 528.454 212.559 528.634C213.489 528.72 214.688 528.533 215.557 528.906C216.187 529.175 216.93 528.909 217.59 529.041C219.562 529.435 221.558 529.553 223.578 529.553C225.863 529.553 228.147 529.513 230.416 529.681C232.312 529.822 234.194 530.057 236.087 530.201C238.219 530.363 240.412 530.231 242.549 530.231C244.466 530.231 246.41 530.367 248.341 530.367C251.953 530.367 255.566 530.367 259.178 530.367C262.884 530.367 266.561 530.078 270.257 529.952C273.869 529.83 277.488 529.795 281.094 529.689C283.111 529.629 285.162 529.553 287.202 529.553C287.973 529.553 288.744 529.553 289.514 529.553C291.098 529.553 292.895 529.822 294.425 529.312C295.798 528.854 297.439 528.633 298.898 528.604C299.852 528.586 301.153 528.714 302.069 528.393C303.59 527.861 305.442 527.249 307.062 527.249"
        stroke="#EFE8D6" stroke-width="16" stroke-linecap="round" />
    <path
        d="M306.113 526.028C306.423 527.061 308.135 527.04 308.93 526.842C310.018 526.57 311.237 526.411 312.349 526.299C313.035 526.231 313.651 525.891 314.307 525.727C315.259 525.489 316.205 525.257 317.162 525.012C319.005 524.537 320.931 524.106 322.735 523.505C323.761 523.163 324.706 522.743 325.695 522.3C326.735 521.834 327.848 521.551 328.858 521.012C330.226 520.282 331.376 519.252 332.714 518.467C334.085 517.662 335.717 517.333 336.683 515.997C337.153 515.346 337.918 514.715 338.234 513.978C338.764 512.741 334.662 513.153 334.054 513.21C331.676 513.434 329.313 514.462 326.93 514.505C325.827 514.525 324.702 514.554 323.601 514.498C322.85 514.459 325.392 513.265 325.642 513.15C330.593 510.864 336.1 509.625 341.54 509.625C342.485 509.625 342.09 509.48 342.587 508.797C343.124 508.059 343.447 507.023 343.634 506.131C343.914 504.793 343.935 503.528 343.935 502.162C343.935 500.487 343.816 498.587 344.206 496.957C345.554 491.329 347.189 485.635 347.189 479.786C347.189 478.106 347.324 476.464 347.324 474.785C347.324 473.542 347.629 471.758 347.159 470.583C346.976 470.126 347.053 469.58 347.053 469.092C347.053 468.354 346.869 467.62 346.752 466.892C346.483 465.227 346.104 463.674 346.104 461.975C346.104 461.459 346.329 460.386 346.79 460.069C347.503 459.579 347.731 459.042 347.731 458.216C347.731 456.897 348.099 455.437 347.859 454.119C347.647 452.953 347.365 451.692 347.324 450.489C347.283 449.231 347.053 448.036 347.053 446.754C347.053 445.637 347.46 444.634 347.46 443.53C347.46 442.224 346.946 440.965 346.918 439.644C346.89 438.348 346.918 437.047 346.918 435.751C346.918 433.782 346.078 431.871 345.969 429.914C345.934 429.291 345.969 428.655 345.969 428.031C345.969 427.048 345.788 426.187 345.705 425.237C345.612 424.167 345.427 422.965 345.427 421.916"
        stroke="#EFE8D6" stroke-width="16" stroke-linecap="round" />
    <path
        d="M345.291 417.984C345.291 416.768 345.02 415.591 345.02 414.384C345.02 412.785 344.135 411.312 343.966 409.715C343.713 407.341 343.8 405.099 343.8 402.734C343.8 401.946 343.832 401.254 344.071 400.497C344.206 400.066 344.065 399.45 344.274 399.073C344.421 398.81 344.342 398.411 344.342 398.117C344.342 397.288 344.391 396.442 344.312 395.616C344.231 394.77 344.082 393.906 344.071 393.056C344.059 392.202 344.154 391.31 344.003 390.465C343.777 389.199 343.707 387.945 343.423 386.669C343.135 385.372 343.258 383.928 343.258 382.602C343.258 380.506 343.393 378.376 343.393 376.306C343.393 374.726 343.258 373.107 343.258 371.554C343.258 370.057 342.949 368.58 342.858 367.088C342.674 364.042 343.054 360.938 342.203 357.96C341.955 357.09 342.173 355.883 342.173 354.985C342.173 353.644 342.173 352.304 342.173 350.963C342.173 349.819 342.279 348.688 342.309 347.552C342.333 346.618 342.113 345.473 342.376 344.577C342.589 343.854 342.444 342.953 342.444 342.204C342.444 341.242 342.514 340.21 342.61 339.252C342.791 337.445 342.92 335.627 343.152 333.83C343.589 330.442 343.474 326.985 343.905 323.587C344.077 322.231 344.411 321.069 344.817 319.761C345.275 318.285 345.33 316.719 345.758 315.25C346.11 314.044 346.222 312.644 346.406 311.401C346.605 310.051 346.819 308.701 347.129 307.372C347.833 304.353 347.867 301.337 347.867 298.252C347.867 296.88 348.162 295.524 348.273 294.155C348.438 292.141 348.383 290.266 348.07 288.265C347.9 287.176 348.053 286.131 348.138 285.057C348.225 283.954 348.951 282.89 348.951 281.743"
        stroke="#EFE8D6" stroke-width="16" stroke-linecap="round" />
    <path
        d="M350.307 279.845C350.908 279.77 350.641 277.14 350.774 276.727C350.919 276.273 351.212 276.033 351.248 275.522C351.274 275.156 351.256 274.782 351.256 274.415C351.256 273.502 351.21 272.587 351.045 271.689C350.619 269.378 350.036 267.235 350.036 264.858C350.036 263.339 350.442 261.891 350.442 260.377C350.442 258.345 350.914 256.289 350.985 254.254C351.057 252.157 351.256 250.002 351.256 247.927C351.256 245.003 351.391 242.038 351.391 239.093C351.391 237.949 351.12 236.851 351.12 235.712C351.12 234.873 351.018 234.028 350.819 233.211C350.434 231.628 350.427 229.859 350.179 228.248C349.778 225.644 350.171 222.973 350.171 220.4C350.171 213.27 350.036 206.121 350.036 199.004C350.036 197.645 350.163 196.192 350.028 194.839C349.859 193.149 349.403 191.391 349.358 189.695C349.317 188.13 349.222 186.582 349.222 185.018C349.222 184.622 349.099 184.008 348.981 183.625C348.756 182.893 348.995 182.004 348.71 181.29C348.563 180.922 348.68 180.336 348.68 179.935C348.68 179.292 348.616 178.696 348.552 178.059C348.439 176.931 348.409 175.666 348.409 174.542C348.409 173.288 348.134 171.923 347.799 170.716C347.359 169.134 347.324 167.567 347.324 165.942C347.324 163.776 347.053 161.668 347.053 159.495C347.053 156.742 346.782 154.021 346.782 151.301C346.782 149.584 346.647 147.9 346.647 146.187C346.647 145.253 346.528 144.331 346.511 143.408C346.498 142.702 346.636 141.861 346.481 141.164C346.277 140.244 346.24 139.109 346.24 138.166C346.24 136.468 346.104 134.765 346.104 133.06C346.104 131.333 345.833 129.598 345.833 127.878"
        stroke="#EFE8D6" stroke-width="16" stroke-linecap="round" />
    <path
        d="M346.376 127.336C346.376 125.84 346.104 124.417 346.104 122.93C346.104 122.228 345.969 121.55 345.969 120.837C345.969 119.631 346.209 118.42 346.345 117.214C346.555 115.356 346.376 113.373 346.376 111.505C346.376 108.749 346.376 105.993 346.376 103.236C346.376 100.989 346.131 98.7276 345.976 96.4881C345.771 93.5058 346.24 90.5336 346.24 87.556C346.24 82.7096 346.511 77.8677 346.511 73.0055C346.511 67.9218 345.677 62.8785 345.562 57.8224C345.509 55.4928 345.064 53.1245 344.756 50.8183C344.61 49.7181 344.546 48.5825 344.274 47.497C344.082 46.7268 344.003 45.947 343.92 45.1623C343.861 44.5944 343.558 43.9554 343.529 43.4225C343.418 41.427 342.444 39.597 342.444 37.5406C342.444 36.7324 342.119 35.9407 342.03 35.1381C341.95 34.4228 341.762 33.6682 341.601 32.9841C341.442 32.3104 341.263 31.6558 341.119 30.9808C340.992 30.3896 340.558 29.9413 340.403 29.3992C340.227 28.7827 339.208 28.0332 338.724 27.667C338.184 27.2588 337.554 26.5322 336.886 26.3415C333.984 25.5125 331.52 23.883 328.662 22.9525C326.116 22.1234 323.615 21.7864 320.965 21.2956C319.153 20.96 317.474 19.8852 315.663 19.5558C313.746 19.2073 311.926 18.6586 309.939 18.6144C309.068 18.5951 308.17 18.4639 307.303 18.3132C306.539 18.1803 305.787 18.1517 305.029 17.9667C304.61 17.8647 304.018 17.6655 303.605 17.6655C302.132 17.6655 300.666 17.5299 299.207 17.5299C298.928 17.5299 298.564 17.4265 298.303 17.319C297.501 16.9888 296.592 16.8911 295.75 16.6864C293.598 16.1629 291.404 15.9448 289.198 15.7751C286.464 15.5648 283.679 15.5722 280.929 15.632C279.953 15.6532 278.982 15.7676 277.991 15.7676C277 15.7676 276.048 15.5739 275.069 15.504C271.519 15.2504 267.953 15.2253 264.367 15.2253C260.765 15.2253 257.13 15.4965 253.522 15.4965C251.613 15.4965 249.728 15.4613 247.821 15.3609C247.331 15.3351 246.29 15.3585 245.848 15.1576C245.412 14.9595 244.782 15.068 244.567 15.4965"
        stroke="#EFE8D6" stroke-width="16" stroke-linecap="round" />
    <path
        d="M155.9 19.6141C162.383 19.6141 168.868 19.3169 175.353 19.3007C179.854 19.2895 184.352 19.1725 188.851 19.0338C193.833 18.8801 198.819 18.8688 203.8 18.7204C207.82 18.6007 211.839 18.4498 215.859 18.3374C220.004 18.2216 224.148 18.3065 228.29 18.0995C232.616 17.8832 236.969 17.8507 241.301 17.8383C243.861 17.831 246.419 17.6294 248.973 17.6294"
        stroke="#EFE8D6" stroke-width="16" stroke-linecap="round" />
    <rect x="24" y="22" width="320" height="487" fill="#EFE8D6" />
    <path
        d="M74.5864 7.1309C61.1606 6.68337 48.4244 6.74283 35.0836 8.00874C31.8456 8.316 28.4347 7.8821 26.4149 10.8617C24.6292 13.4961 23.3597 16.5509 22.1355 19.4755C20.5677 23.2208 18.1919 26.7065 16.1003 30.1742C14.1063 33.4801 12.2586 36.8655 10.3395 40.2145C9.50138 41.6771 7.90479 43.5359 7.54137 45.2621C6.60528 49.7085 7.0222 55.1368 6.93785 59.6916C6.81981 66.066 5.89416 72.5508 4.85298 78.8395C3.70488 85.774 5.76384 91.1472 7.10245 97.9325C8.66039 105.83 6.53231 113.608 5.23704 121.36C2.47118 137.914 2 155.009 2 171.781C2 180.415 2.25835 189.103 2.60352 197.732C3.02104 208.17 5.428 218.157 6.44407 228.511C7.9965 244.331 7.03826 260.289 8.52894 276.134C9.41677 285.571 10.5509 294.542 10.2846 304.06C9.92057 317.075 9.77942 329.989 9.87313 343.015C10.0012 360.812 9.28698 378.589 8.63867 396.371C8.39515 403.05 7.4865 409.832 7.4865 416.506C7.4865 428.193 9.99241 439.53 10.9979 451.126C11.6811 459.006 12.4635 466.634 14.1252 474.389C16.4134 485.067 17.6188 497.243 23.0133 506.896C29.744 518.941 43.1057 523.969 56.0146 526.154C66.1774 527.874 76.044 529.711 86.355 530.296C99.4537 531.041 112.476 533.729 125.474 535.454C138.89 537.233 152.036 536.264 165.498 536.002C178.505 535.75 191.491 536.355 204.479 536.962C218.814 537.633 233.056 539.246 247.411 539.678C264.426 540.191 281.562 538.531 298.518 537.264C305.788 536.721 312.307 534.708 319.284 532.765C324.984 531.179 330.733 529.641 335.963 526.812C344.88 521.99 350.365 513.515 352.368 503.605C354.419 493.458 353.331 483.164 354.672 472.99C357.058 454.896 355.398 436.492 353.575 418.454C351.974 402.611 351.737 386.268 351.6 370.337C351.466 354.761 350.353 339.37 352.478 323.867C353.41 317.068 354.971 310.396 356.044 303.622C358.044 290.995 358.559 278.138 359.116 265.381C359.778 250.246 358.974 235.273 358.129 220.172C357.389 206.94 357.418 193.591 357.004 180.34C356.634 168.481 355.199 156.709 355.084 144.815C354.902 126.025 354.563 107.172 354.563 88.386C354.563 76.7516 354.807 65.1219 353.822 53.5193C353.151 45.6139 352.121 37.6731 349.57 30.1193C348.42 26.7133 346.904 22.3123 343.48 20.6003C316.803 7.26191 286.09 6.62413 256.848 6.17076C244.588 5.98068 232.322 6.26451 220.061 6.11589C209.4 5.98667 198.778 5.09658 188.13 4.66197C166.414 3.77561 144.691 2.19305 122.95 2.19305C111.764 2.19305 100.35 1.50974 89.208 2.71426C78.5742 3.86386 67.9337 4.9432 57.3039 6.14333"
        stroke="#363636" stroke-width="3" stroke-linecap="round" />
</svg>