<svg version="1.1" id="Layer_1" xmlns="http://www.w3.org/2000/svg" xmlns:xlink="http://www.w3.org/1999/xlink" x="0px"
	y="0px" width="100%" viewBox="0 0 176 80" enable-background="new 0 0 176 80" xml:space="preserve">
	<path fill="#363636" opacity="1.000000" stroke="none" d="
M95.609924,36.387058 
	C86.367348,34.330727 78.256454,35.978161 70.370316,40.788647 
	C72.371086,44.059040 75.544106,45.116692 77.832512,47.196190 
	C82.046333,51.025356 81.383133,54.551857 75.995995,56.357693 
	C72.436043,57.551033 68.806053,57.683655 65.172401,56.757263 
	C58.375031,55.024284 56.682838,51.072628 60.021065,44.851673 
	C60.480469,43.995552 60.941422,43.140263 61.772980,41.594223 
	C50.666214,36.213699 39.646812,32.200382 27.276558,33.806499 
	C23.116953,34.346569 19.001396,34.758694 14.957022,33.274136 
	C13.319447,32.673038 11.542404,31.620111 12.119149,29.769335 
	C12.884308,27.313938 14.761397,28.832327 16.250093,29.324400 
	C19.005112,30.235044 21.854441,30.109825 24.664845,29.819757 
	C37.821354,28.461838 50.111511,31.477926 61.855221,37.155884 
	C64.127739,38.254616 65.915169,38.418564 68.316498,37.105015 
	C83.886848,28.587904 99.112869,30.024363 113.427010,39.931389 
	C123.632835,46.994991 134.377853,52.782169 146.005020,57.069424 
	C151.592667,59.129734 156.591949,58.470699 161.583344,55.119995 
	C160.669830,51.558380 157.255508,50.369297 155.563950,47.803791 
	C154.681061,46.464806 153.083527,44.913994 154.921082,43.478252 
	C156.570358,42.189613 157.497391,44.157909 158.533661,45.105011 
	C159.269974,45.777962 159.930283,46.533295 160.651062,47.224148 
	C169.780090,55.974060 169.128372,65.297707 158.862976,72.966843 
	C157.915817,73.674461 156.987167,74.621315 155.829559,73.540443 
	C154.492188,72.291718 155.341904,71.054024 156.235229,70.049019 
	C158.629684,67.355202 161.242126,64.825638 162.557144,61.199635 
	C161.762115,60.859268 161.210403,60.402115 160.921463,60.531551 
	C152.783295,64.177231 145.318787,61.295799 137.846909,58.259525 
	C129.327515,54.797577 121.311417,50.433578 113.840324,45.068310 
	C108.401306,41.162350 102.737152,37.714043 95.609924,36.387058 
M70.636345,46.876602 
	C69.662003,46.265678 68.738037,45.546741 67.703773,45.064274 
	C64.713623,43.669407 64.052773,46.321270 63.011497,48.004818 
	C61.795273,49.971218 62.565716,51.741100 64.604187,52.326107 
	C68.151581,53.344154 71.845329,54.227028 75.273346,51.728611 
	C74.620918,49.345055 72.659561,48.558434 70.636345,46.876602 
z" />
</svg>