<svg version="1.1" id="Layer_1" xmlns="http://www.w3.org/2000/svg" xmlns:xlink="http://www.w3.org/1999/xlink" x="0px"
	y="0px" width="100%" viewBox="0 0 480 384" enable-background="new 0 0 480 384" xml:space="preserve">
	<path fill="#363636" opacity="1.000000" stroke="none" d="
M321.165649,123.166382 
	C346.020752,98.023605 354.890228,66.971092 356.978149,32.233288 
	C352.841949,35.611210 349.638428,38.955715 345.146667,40.260532 
	C342.665009,40.981430 340.017181,41.801163 338.771790,38.605732 
	C337.535431,35.433498 339.673370,34.199966 342.335480,33.278095 
	C347.681183,31.426908 350.714111,26.894266 354.051971,22.753077 
	C358.777222,16.890537 361.783142,16.984457 365.850067,23.365854 
	C368.755402,27.924601 373.033661,30.674620 377.671173,33.053341 
	C380.037170,34.266953 382.282654,35.735222 380.602264,38.810371 
	C378.973999,41.790115 376.389618,40.909447 374.077698,39.698837 
	C371.145264,38.163322 368.313721,36.435074 365.073853,34.581173 
	C363.116882,40.527073 363.353729,46.532581 362.537720,52.329044 
	C354.932159,106.357216 324.407440,141.712341 274.322357,161.272491 
	C262.981018,165.701721 251.318878,169.071259 239.358505,171.343079 
	C236.025543,171.976151 234.464554,173.162216 234.035049,177.057816 
	C229.646255,216.864578 210.821350,246.879105 174.028961,264.599304 
	C162.770493,270.021667 152.024323,276.232452 142.243790,284.245026 
	C129.708054,294.514771 121.946548,307.346619 118.243309,322.944397 
	C116.437904,330.548676 114.343468,338.086273 112.278023,345.626160 
	C110.750816,351.201233 106.526253,354.277618 100.916138,354.175842 
	C98.835190,354.138092 97.315636,353.303650 96.875046,351.212646 
	C96.426170,349.082306 97.526329,347.205475 99.481667,347.045929 
	C104.568108,346.630859 105.330681,343.054321 106.249069,339.178467 
	C107.705856,333.030487 109.641914,326.992004 110.990219,320.823059 
	C116.192764,297.019806 131.277466,280.765839 151.261826,268.501099 
	C161.184113,262.411591 171.906204,257.628815 181.854568,251.577667 
	C207.473846,235.994675 220.927841,212.383087 225.682785,183.302200 
	C226.084534,180.845245 226.336197,178.362244 226.596069,175.884903 
	C226.643967,175.428253 226.395416,174.940491 226.160675,173.945892 
	C222.936966,174.221634 219.652405,174.326492 216.426804,174.818100 
	C211.050568,175.637527 205.753845,175.138672 200.568466,173.883682 
	C194.430435,172.398087 192.736694,167.488129 196.698364,162.532196 
	C202.657410,155.077606 210.690018,150.807236 219.919189,148.931747 
	C224.510788,147.998672 228.092682,150.791153 230.904083,156.609344 
	C234.898453,164.875687 234.897476,164.871536 244.036240,162.733322 
	C270.177338,156.617020 294.340637,146.358063 315.011475,128.806885 
	C317.041260,127.083458 318.948822,125.216103 321.165649,123.166382 
M222.838684,157.723404 
	C222.034958,156.754333 220.970062,156.175064 219.769775,156.548889 
	C213.778473,158.414963 208.214966,160.998596 203.658752,166.247696 
	C210.156586,169.040115 216.023453,166.873627 221.854080,166.691177 
	C225.320404,166.582733 226.330460,165.041412 224.955658,161.897369 
	C224.425934,160.685974 223.839844,159.499237 222.838684,157.723404 
z" />
</svg>