<svg version="1.1" id="Layer_1" xmlns="http://www.w3.org/2000/svg" xmlns:xlink="http://www.w3.org/1999/xlink" x="0px"
	y="0px" width="100%" viewBox="80 60 850 120" enable-background="new 0 0 1024 240" xml:space="preserve">
	<path fill="#363636" opacity="1.000000" stroke="none" d="
M275.000000,129.093872 
	C264.179230,129.089218 253.858292,129.110336 243.537796,129.052979 
	C241.899384,129.043869 240.222931,128.837631 238.638519,128.431854 
	C237.422272,128.120361 236.819061,127.030403 236.921799,125.710884 
	C237.008224,124.601059 237.705215,123.912895 238.659576,123.467438 
	C240.393494,122.658104 242.253372,122.897697 244.071091,122.896919 
	C295.175659,122.875023 346.280273,122.844421 397.384735,122.909721 
	C400.288055,122.913437 405.103210,121.577553 405.224823,125.752831 
	C405.367493,130.649185 400.303375,129.033646 397.351807,129.041168 
	C356.734741,129.144760 316.117340,129.101181 275.000000,129.093872 
z" />
	<path fill="#363636" opacity="1.000000" stroke="none" d="
M721.000000,122.855728 
	C732.493713,122.853035 743.487610,122.809334 754.480896,122.881218 
	C756.893555,122.896996 760.168945,122.598068 759.998779,126.215462 
	C759.850464,129.366974 756.792908,129.084885 754.517700,129.086304 
	C716.872620,129.109650 679.227478,129.095963 641.582397,129.067505 
	C640.429932,129.066635 639.235962,128.962875 638.135742,128.647491 
	C636.769958,128.255981 635.801697,127.331192 635.919006,125.734848 
	C636.017883,124.390121 636.930542,123.539307 638.099182,123.307144 
	C639.712585,122.986610 641.392639,122.891632 643.044312,122.889763 
	C668.862854,122.860565 694.681458,122.861954 721.000000,122.855728 
z" />
	<path fill="#363636" opacity="1.000000" stroke="none" d="
M110.988632,119.126816 
	C114.979103,115.855331 114.719574,111.632996 114.723778,107.459549 
	C114.726288,104.973679 114.765640,102.475716 115.019028,100.006866 
	C115.165520,98.579613 116.161179,97.620277 117.733917,97.593987 
	C119.316193,97.567520 120.128639,98.474815 120.485184,99.941002 
	C121.128181,102.585266 120.527840,105.224937 120.555046,107.860512 
	C120.609032,113.090584 120.263336,118.563950 126.173775,121.583107 
	C128.176437,122.606102 128.407822,124.847366 126.392067,126.013252 
	C121.926399,128.596115 121.476463,132.751282 121.238647,137.150452 
	C121.185219,138.138687 121.016342,139.133438 120.782364,140.096451 
	C120.343918,141.900970 119.833786,144.007690 117.503807,143.789169 
	C115.275551,143.580200 114.916695,141.542130 114.777916,139.627396 
	C114.424347,134.749420 112.212219,130.759140 108.787506,127.399467 
	C107.287674,125.928123 104.902008,124.953697 105.430962,122.328995 
	C105.994415,119.533035 108.791008,120.117958 110.988632,119.126816 
z" />
	<path fill="#363636" opacity="1.000000" stroke="none" transform="translate(819.69, 54.35) scale(0.35)" d="
M209.883820,188.034546 
	C212.252106,181.806656 213.431656,175.558472 216.457596,169.542267 
	C219.617188,172.669968 219.721375,176.655289 220.827301,180.143616 
	C225.125961,193.702332 225.059174,193.676056 239.215591,193.784790 
	C243.096146,193.814590 247.052002,193.209976 252.237396,194.671219 
	C246.498474,198.877335 241.870987,202.844116 236.701828,205.892288 
	C231.734268,208.821609 230.679962,211.978409 232.912643,217.279800 
	C235.201187,222.713821 236.565109,228.537262 238.555145,234.897995 
	C233.465347,233.957458 230.726562,230.668289 227.501572,228.423752 
	C216.429199,220.717545 216.525421,220.640488 205.415894,228.615479 
	C202.252258,230.886536 199.485168,233.814819 195.055496,235.362473 
	C196.397079,227.977936 198.872849,221.496719 201.192749,215.030136 
	C202.537399,211.282028 201.649429,209.285706 198.519348,207.249268 
	C193.924652,204.259903 189.588852,200.872284 185.147781,197.647400 
	C184.118988,196.900345 182.835815,196.340744 182.619217,193.716232 
	C189.373520,193.716232 195.934387,193.461884 202.463577,193.806870 
	C206.720963,194.031830 209.108627,192.618958 209.883820,188.034546 
z" />
	<path fill="#363636" opacity="1.000000" stroke="none" d="
M513.352173,125.988388 
	C512.903076,129.878662 510.766327,131.457794 507.473053,130.950424 
	C504.887695,130.552155 503.457397,128.602234 503.474976,125.945404 
	C503.492432,123.306290 504.862793,121.355682 507.502991,120.979935 
	C510.831848,120.506195 512.911499,122.113014 513.352173,125.988388 
z" />
</svg>