<svg version="1.1" id="Layer_1" xmlns="http://www.w3.org/2000/svg" xmlns:xlink="http://www.w3.org/1999/xlink" x="0px"
	y="0px" width="100%" viewBox="0 0 1024 32" enable-background="new 0 0 1024 32" xml:space="preserve">
	<path fill="#363636" opacity="1.000000" stroke="none" d="
M467.000092,19.725723 
	C553.770752,19.728651 640.041382,19.714331 726.311890,19.820414 
	C728.898376,19.823593 733.635559,18.039932 733.546692,22.282532 
	C733.472412,25.827301 728.883423,24.235809 726.343201,24.238478 
	C634.743408,24.334728 543.143494,24.344204 451.543701,24.257296 
	C449.013885,24.254896 444.425873,25.830055 444.326569,22.306225 
	C444.205200,18.000111 448.927460,19.995184 451.517395,19.818916 
	C456.490723,19.480438 461.503601,19.723989 467.000092,19.725723 
z" />
	<path fill="#363636" opacity="1.000000" stroke="none" d="
M299.999939,24.309105 
	C277.025238,24.309242 254.550552,24.309555 232.075882,24.307671 
	C230.744095,24.307558 229.409836,24.337273 228.081146,24.268103 
	C226.455078,24.183447 224.252151,24.407867 224.201096,22.178980 
	C224.141129,19.560835 226.552826,19.828730 228.311432,19.796482 
	C232.638351,19.717138 236.967667,19.768230 241.296021,19.766775 
	C281.916901,19.753126 322.537842,19.705763 363.158417,19.809101 
	C365.608521,19.815334 370.140503,18.127016 370.020264,22.153351 
	C369.907257,25.938307 365.421387,24.211889 362.929138,24.229828 
	C342.120300,24.379604 321.309875,24.311304 299.999939,24.309105 
z" />
	<path fill="#363636" opacity="1.000000" stroke="none" d="
M930.000000,24.306749 
	C923.343750,24.304497 917.186951,24.348192 911.031677,24.269411 
	C909.322144,24.247534 906.730713,24.812250 906.637207,22.285795 
	C906.531860,19.439007 909.251221,19.773396 911.153076,19.767641 
	C928.290588,19.715773 945.428223,19.727850 962.565857,19.723875 
	C972.881714,19.721481 983.197632,19.711744 993.513367,19.737713 
	C995.002808,19.741461 996.511963,19.812412 997.974182,20.068209 
	C998.981812,20.244493 999.810608,20.943521 999.761475,22.130377 
	C999.713623,23.285076 998.905701,23.957630 997.871277,24.109917 
	C996.563354,24.302464 995.220520,24.307022 993.892700,24.307505 
	C972.761780,24.315197 951.630920,24.309256 930.000000,24.306749 
z" />
	<path fill="#363636" opacity="1.000000" stroke="none" d="
M80.000153,19.740250 
	C87.665176,19.741528 94.830498,19.710840 101.995117,19.767626 
	C103.929482,19.782959 106.620247,19.482353 106.561531,22.269867 
	C106.508331,24.794933 103.908493,24.280535 102.192352,24.282667 
	C74.531975,24.317032 46.871513,24.319019 19.211180,24.267696 
	C17.391644,24.264322 14.508770,24.928043 14.681022,21.952854 
	C14.835986,19.276255 17.612783,19.766399 19.513802,19.762732 
	C39.509197,19.724159 59.504704,19.740198 80.000153,19.740250 
z" />
	<path fill="#363636" opacity="1.000000" stroke="none" d="
M147.746246,25.306564 
	C145.562698,23.313499 145.295456,21.426268 147.122177,19.477224 
	C148.424271,18.087938 150.017807,17.883301 151.623306,18.825094 
	C153.402069,19.868523 154.181107,21.582739 153.346542,23.469383 
	C152.355438,25.709988 150.524414,26.615181 147.746246,25.306564 
z" />
	<path fill="#363636" opacity="1.000000" stroke="none" d="
M832.140625,25.874493 
	C829.320068,25.160379 828.085754,23.640987 828.674622,21.032902 
	C829.049744,19.371593 830.306030,18.504560 831.887329,18.298727 
	C833.788940,18.051193 835.202087,19.080404 835.771973,20.782818 
	C836.737854,23.668482 835.060303,25.116936 832.140625,25.874493 
z" />
	<path fill="#363636" opacity="1.000000" stroke="none" d="
M420.718262,18.839108 
	C423.581970,17.740496 425.267029,18.761671 426.067596,21.131218 
	C426.658325,22.879528 425.968689,24.360682 424.344299,25.324364 
	C422.677612,26.313156 421.138641,26.016226 419.895142,24.639196 
	C418.100159,22.651442 418.550720,20.758116 420.718262,18.839108 
z" />
</svg>