<svg width="48" height="62" viewBox="0 0 48 62" fill="none" xmlns="http://www.w3.org/2000/svg">
<path d="M19.6936 12.4732C16.1715 15.7605 12.0885 18.6859 8.8944 22.2907C8.30483 22.956 10.7405 22.3742 11.5451 21.9961C12.7649 21.423 19.4584 17.9137 21.1662 17.5783C23.8511 17.0509 12.1701 29.0453 12.036 29.8501C11.8414 31.0177 13.8392 28.3159 14.7358 27.543C17.6353 25.0434 20.5005 22.5039 23.4242 20.0326C25.5887 18.2031 41.4946 4.83319 45.0225 2.55764C48.0651 0.595097 41.8979 9.16572 39.6229 11.9824C29.5275 24.4815 22.0434 32.7981 12.036 45.4598C8.52107 49.9069 -2.30713 61.3311 3.2003 59.9895C5.84808 59.3446 22.2943 46.871 22.3443 46.8342C25.4742 44.5335 28.5128 42.1048 31.7199 39.9129C33.0688 38.991 34.3575 37.4558 35.9905 37.5077C38.8391 37.5981 33.0278 42.4064 31.1799 44.5762C30.4573 45.4247 27.9995 47.6569 28.6274 46.736C30.9543 43.3232 37.1975 35.4207 39.1321 32.7953" stroke="#363636" stroke-width="3" stroke-linecap="round"/>
</svg>
