<svg version="1.1" id="Layer_1" xmlns="http://www.w3.org/2000/svg" xmlns:xlink="http://www.w3.org/1999/xlink" x="0px"
	y="0px" width="100%" viewBox="0 0 208 160" enable-background="new 0 0 208 160" xml:space="preserve">
	<path fill="#363636" opacity="1.000000" stroke="none" d="
M100.794754,70.664627 
	C113.727463,66.745476 126.201500,62.676048 139.149872,60.344849 
	C141.007248,60.010452 143.065689,59.310127 143.926437,61.496590 
	C144.875778,63.908070 142.844208,65.286293 141.029892,66.013489 
	C133.242783,69.134636 126.109993,73.307014 119.684975,78.685738 
	C118.463989,79.707893 116.726952,80.273422 116.232132,82.476944 
	C120.049576,82.592552 122.668823,79.813194 125.903870,79.046814 
	C128.698288,78.384804 132.527481,74.925598 134.249161,78.714226 
	C135.798584,82.123848 130.933334,82.803741 128.622101,84.304840 
	C124.143021,87.213882 119.280830,88.982849 115.328583,93.361549 
	C111.177086,97.960991 104.105972,99.533356 98.067589,101.899551 
	C96.922691,102.348190 95.694061,102.185928 95.109657,100.850975 
	C94.445641,99.334175 95.335060,98.181992 96.422829,97.426308 
	C99.413544,95.348648 102.515488,93.431099 105.815857,91.293144 
	C101.426537,83.479523 109.954597,82.445732 112.704636,78.158180 
	C109.629135,77.880089 107.946678,76.800652 110.736092,73.074478 
	C97.702477,76.775681 85.285378,80.302483 72.867653,83.827087 
	C71.589012,84.190010 70.316673,84.582771 69.023460,84.884819 
	C67.396927,85.264725 65.440575,85.843681 64.880692,83.594322 
	C64.305481,81.283356 66.391159,81.064896 67.968124,80.587502 
	C78.781052,77.314026 89.590652,74.029533 100.794754,70.664627 
z" />
</svg>