<svg version="1.1" id="Layer_1" xmlns="http://www.w3.org/2000/svg" xmlns:xlink="http://www.w3.org/1999/xlink" x="0px"
	y="0px" width="100%" viewBox="0 0 224 432" enable-background="new 0 0 224 432" xml:space="preserve">
	<path fill="#363636" opacity="1.000000" stroke="none" d="
M120.364944,41.582352 
	C120.651505,52.236332 123.853531,61.930397 126.574875,71.650154 
	C130.634277,86.149002 129.520050,100.706833 127.943291,115.253693 
	C126.527100,128.319275 123.808212,141.186142 119.483887,153.647049 
	C118.612007,156.159454 119.042908,158.023499 120.989304,159.889160 
	C134.654724,172.987747 141.682205,189.525818 144.799103,207.784271 
	C148.216782,227.804764 146.116608,247.332611 136.956055,265.659027 
	C123.164581,293.249939 113.725197,322.185516 108.424683,352.571930 
	C106.570786,363.199890 108.613853,372.659607 114.069710,381.665100 
	C116.658287,385.937805 119.297325,390.182068 121.783272,394.513977 
	C122.966347,396.575562 123.026215,398.773834 120.846931,400.292206 
	C118.491028,401.933624 116.580917,400.652008 115.388618,398.671906 
	C109.396088,388.719727 102.446098,379.220642 100.292175,367.401031 
	C98.597481,358.101440 101.311661,349.215851 102.992538,340.296814 
	C108.016823,313.637054 117.545204,288.548340 129.120483,264.039124 
	C143.825119,232.903900 141.574158,202.461441 122.741447,173.450684 
	C121.660156,171.785019 120.218704,170.356995 119.009064,168.769455 
	C118.202881,167.711441 117.510780,166.566483 116.202377,164.619202 
	C113.033684,171.084976 110.612198,176.278015 107.962616,181.351959 
	C105.885284,185.330032 103.788528,189.343994 101.229599,193.013718 
	C97.440613,198.447418 91.275902,198.926819 87.400131,193.587936 
	C78.569168,181.423309 76.014534,167.787674 80.840340,153.411194 
	C83.254829,146.218231 90.044228,143.478073 97.501122,145.301361 
	C102.409256,146.501419 106.541885,149.400940 111.589073,151.623962 
	C114.344803,145.732132 115.591682,139.603516 116.865540,133.515366 
	C120.418488,116.534721 122.739410,99.450592 120.828499,82.035652 
	C120.224495,76.531120 118.287621,71.373329 116.999634,66.047188 
	C114.894882,57.343536 112.236687,48.729656 112.591904,38.750309 
	C108.759560,41.267719 105.721275,43.903362 101.823242,44.849586 
	C99.355232,45.448677 96.973473,45.567776 96.019402,42.696739 
	C95.080444,39.871204 96.764481,38.401154 99.341377,37.593185 
	C105.484512,35.667042 108.832382,30.526606 112.593391,25.886623 
	C117.145103,20.271145 120.144478,20.358824 124.003105,26.496685 
	C127.143021,31.491289 131.603958,34.819260 136.831497,37.228230 
	C139.445663,38.432892 141.169479,40.197346 139.894943,43.051243 
	C138.473984,46.232998 135.874771,45.124462 133.483078,44.095089 
	C129.351624,42.316940 125.725868,39.693264 122.158325,37.090599 
	C120.492737,38.197876 120.473495,39.710278 120.364944,41.582352 
M87.246109,174.309341 
	C88.515381,179.518158 89.310471,184.961853 94.277161,189.043839 
	C99.110802,182.893051 102.104027,176.309769 105.077980,169.706573 
	C109.798721,159.224899 108.913651,157.176208 97.911652,153.459091 
	C97.127388,153.194107 96.314713,153.012451 95.513588,152.798279 
	C91.394241,151.697021 88.687798,153.279449 87.451752,157.260513 
	C85.790680,162.610489 85.915428,168.036240 87.246109,174.309341 
z" />
</svg>